  0
SECTION
  2
HEADER
  9
$ACADVER
  1
AC1014
  9
$HANDSEED
  5
FFFF
  9
$MEASUREMENT
 70
     1
  0
ENDSEC
  0
SECTION
  2
TABLES
  0
TABLE
  2
VPORT
  5
8
330
0
100
AcDbSymbolTable
 70
     4
  0
VPORT
  5
2E
330
8
100
AcDbSymbolTableRecord
100
AcDbViewportTableRecord
  2
*ACTIVE
 70
     0
 10
0.0
 20
0.0
 11
1.0
 21
1.0
 12
210.0
 22
148.5
 13
0.0
 23
0.0
 14
10.0
 24
10.0
 15
10.0
 25
10.0
 16
0.0
 26
0.0
 36
1.0
 17
0.0
 27
0.0
 37
0.0
 40
341.0
 41
1.24
 42
50.0
 43
0.0
 44
0.0
 50
0.0
 51
0.0
 71
     0
 72
   100
 73
     1
 74
     3
 75
     0
 76
     0
 77
     0
 78
     0
  0
ENDTAB
  0
TABLE
  2
LTYPE
  5
5
330
0
100
AcDbSymbolTable
 70
     1
  0
LTYPE
  5
14
330
5
100
AcDbSymbolTableRecord
100
AcDbLinetypeTableRecord
  2
BYBLOCK
 70
     0
  3

 72
    65
 73
     0
 40
0.0
  0
LTYPE
  5
15
330
5
100
AcDbSymbolTableRecord
100
AcDbLinetypeTableRecord
  2
BYLAYER
 70
     0
  3

 72
    65
 73
     0
 40
0.0
  0
LTYPE
  5
16
330
5
100
AcDbSymbolTableRecord
100
AcDbLinetypeTableRecord
  2
CONTINUOUS
 70
     0
  3
Solid line
 72
    65
 73
     0
 40
0.0
  0
ENDTAB
  0
TABLE
  2
LAYER
  5
2
100
AcDbSymbolTable
 70
2
  0
LAYER
  5
50
100
AcDbSymbolTableRecord
100
AcDbLayerTableRecord
  2
0
 70
0
  6
CONTINUOUS
  0
LAYER
  5
51
100
AcDbSymbolTableRecord
100
AcDbLayerTableRecord
  2
Calque_1
 70
0
  6
CONTINUOUS
  0
ENDTAB
  0
TABLE
  2
STYLE
  5
3
330
0
100
AcDbSymbolTable
 70
     1
  0
STYLE
  5
11
330
3
100
AcDbSymbolTableRecord
100
AcDbTextStyleTableRecord
  2
STANDARD
 70
     0
 40
0.0
 41
1.0
 50
0.0
 71
     0
 42
2.5
  3
txt
  4

  0
ENDTAB
  0
TABLE
  2
VIEW
  5
6
330
0
100
AcDbSymbolTable
 70
     0
  0
ENDTAB
  0
TABLE
  2
UCS
  5
7
330
0
100
AcDbSymbolTable
 70
     0
  0
ENDTAB
  0
TABLE
  2
APPID
  5
9
330
0
100
AcDbSymbolTable
 70
     2
  0
APPID
  5
12
330
9
100
AcDbSymbolTableRecord
100
AcDbRegAppTableRecord
  2
ACAD
 70
     0
  0
ENDTAB
  0
TABLE
  2
DIMSTYLE
  5
A
330
0
100
AcDbSymbolTable
 70
     1
  0
DIMSTYLE
105
27
330
A
100
AcDbSymbolTableRecord
100
AcDbDimStyleTableRecord
  2
ISO-25
 70
     0
  3

  4

  5

  6

  7

 40
1.0
 41
2.5
 42
0.625
 43
3.75
 44
1.25
 45
0.0
 46
0.0
 47
0.0
 48
0.0
140
2.5
141
2.5
142
0.0
143
0.03937007874016
144
1.0
145
0.0
146
1.0
147
0.625
 71
     0
 72
     0
 73
     0
 74
     0
 75
     0
 76
     0
 77
     1
 78
     8
170
     0
171
     3
172
     1
173
     0
174
     0
175
     0
176
     0
177
     0
178
     0
270
     2
271
     2
272
     2
273
     2
274
     3
340
11
275
     0
280
     0
281
     0
282
     0
283
     0
284
     8
285
     0
286
     0
287
     3
288
     0
  0
ENDTAB
  0
TABLE
  2
BLOCK_RECORD
  5
1
330
0
100
AcDbSymbolTable
 70
     1
  0
BLOCK_RECORD
  5
1F
330
1
100
AcDbSymbolTableRecord
100
AcDbBlockTableRecord
  2
*MODEL_SPACE
  0
BLOCK_RECORD
  5
1B
330
1
100
AcDbSymbolTableRecord
100
AcDbBlockTableRecord
  2
*PAPER_SPACE
  0
ENDTAB
  0
ENDSEC
  0
SECTION
  2
BLOCKS
  0
BLOCK
  5
20
330
1F
100
AcDbEntity
  8
0
100
AcDbBlockBegin
  2
*MODEL_SPACE
 70
     0
 10
0.0
 20
0.0
 30
0.0
  3
*MODEL_SPACE
  1

  0
ENDBLK
  5
21
330
1F
100
AcDbEntity
  8
0
100
AcDbBlockEnd
  0
BLOCK
  5
1C
330
1B
100
AcDbEntity
 67
     1
  8
0
100
AcDbBlockBegin
  2
*PAPER_SPACE
  1

  0
ENDBLK
  5
1D
330
1B
100
AcDbEntity
 67
     1
  8
0
100
AcDbBlockEnd
  0
ENDSEC
  0
SECTION
  2
ENTITIES
  0
LINE
  5
100
100
AcDbEntity
  8
Calque_1
 62
7
100
AcDbLine
 10
14.529675
 20
28.671418
 30
0.0
 11
14.582100
 21
18.671555
 31
0.0
  0
LINE
  5
101
100
AcDbEntity
  8
Calque_1
 62
7
100
AcDbLine
 10
14.582100
 20
18.671555
 30
0.0
 11
19.582031
 21
18.697768
 31
0.0
  0
LINE
  5
102
100
AcDbEntity
  8
Calque_1
 62
7
100
AcDbLine
 10
19.582031
 20
18.697768
 30
0.0
 11
19.634456
 21
8.697905
 31
0.0
  0
LINE
  5
103
100
AcDbEntity
  8
Calque_1
 62
7
100
AcDbLine
 10
19.634456
 20
8.697905
 30
0.0
 11
14.634524
 21
8.671693
 31
0.0
  0
LINE
  5
104
100
AcDbEntity
  8
Calque_1
 62
7
100
AcDbLine
 10
14.634524
 20
8.671693
 30
0.0
 11
14.660737
 21
3.671761
 31
0.0
  0
LINE
  5
105
100
AcDbEntity
  8
Calque_1
 62
7
100
AcDbLine
 10
14.660737
 20
3.671761
 30
0.0
 11
4.660874
 21
3.619337
 31
0.0
  0
LINE
  5
106
100
AcDbEntity
  8
Calque_1
 62
7
100
AcDbLine
 10
4.660874
 20
3.619337
 30
0.0
 11
4.556025
 21
23.619062
 31
0.0
  0
LINE
  5
107
100
AcDbEntity
  8
Calque_1
 62
7
100
AcDbLine
 10
4.556025
 20
23.619062
 30
0.0
 11
9.555956
 21
23.645274
 31
0.0
  0
LINE
  5
108
100
AcDbEntity
  8
Calque_1
 62
7
100
AcDbLine
 10
9.555956
 20
23.645274
 30
0.0
 11
9.529744
 21
28.645205
 31
0.0
  0
LINE
  5
109
100
AcDbEntity
  8
Calque_1
 62
7
100
AcDbLine
 10
9.529744
 20
28.645205
 30
0.0
 11
14.529675
 21
28.671418
 31
0.0
  0
LINE
  5
10a
100
AcDbEntity
  8
Calque_1
 62
7
100
AcDbLine
 10
22.713543
 20
3.933780
 30
0.0
 11
22.713543
 21
18.933780
 31
0.0
  0
LINE
  5
10b
100
AcDbEntity
  8
Calque_1
 62
7
100
AcDbLine
 10
22.713543
 20
18.933780
 30
0.0
 11
37.713543
 21
18.933780
 31
0.0
  0
LINE
  5
10c
100
AcDbEntity
  8
Calque_1
 62
7
100
AcDbLine
 10
37.713543
 20
18.933780
 30
0.0
 11
37.713543
 21
13.933780
 31
0.0
  0
LINE
  5
10d
100
AcDbEntity
  8
Calque_1
 62
7
100
AcDbLine
 10
37.713543
 20
13.933780
 30
0.0
 11
67.713543
 21
13.933780
 31
0.0
  0
LINE
  5
10e
100
AcDbEntity
  8
Calque_1
 62
7
100
AcDbLine
 10
67.713543
 20
13.933780
 30
0.0
 11
67.713543
 21
18.933780
 31
0.0
  0
LINE
  5
10f
100
AcDbEntity
  8
Calque_1
 62
7
100
AcDbLine
 10
67.713543
 20
18.933780
 30
0.0
 11
82.713543
 21
18.933780
 31
0.0
  0
LINE
  5
110
100
AcDbEntity
  8
Calque_1
 62
7
100
AcDbLine
 10
82.713543
 20
18.933780
 30
0.0
 11
82.713543
 21
13.933780
 31
0.0
  0
LINE
  5
111
100
AcDbEntity
  8
Calque_1
 62
7
100
AcDbLine
 10
82.713543
 20
13.933780
 30
0.0
 11
77.713543
 21
13.933780
 31
0.0
  0
LINE
  5
112
100
AcDbEntity
  8
Calque_1
 62
7
100
AcDbLine
 10
77.713543
 20
13.933780
 30
0.0
 11
77.713543
 21
8.933780
 31
0.0
  0
LINE
  5
113
100
AcDbEntity
  8
Calque_1
 62
7
100
AcDbLine
 10
77.713543
 20
8.933780
 30
0.0
 11
82.713543
 21
8.933780
 31
0.0
  0
LINE
  5
114
100
AcDbEntity
  8
Calque_1
 62
7
100
AcDbLine
 10
82.713543
 20
8.933780
 30
0.0
 11
82.713543
 21
3.933780
 31
0.0
  0
LINE
  5
115
100
AcDbEntity
  8
Calque_1
 62
7
100
AcDbLine
 10
82.713543
 20
3.933780
 30
0.0
 11
22.713543
 21
3.933780
 31
0.0
  0
SPLINE
  5
116
100
AcDbEntity
  8
Calque_1
 62
7
100
AcDbSpline
 70
8
 71
3
 72
8
 73
4
 74
0
 40
0
 40
0
 40
0
 40
0
 40
1
 40
1
 40
1
 40
1
 10
34.213543
 20
8.933780
 30
0.0
 10
34.213543
 20
9.469678
 30
0.0
 10
33.927645
 20
9.964869
 30
0.0
 10
33.463543
 20
10.232818
 30
0.0
  0
SPLINE
  5
117
100
AcDbEntity
  8
Calque_1
 62
7
100
AcDbSpline
 70
8
 71
3
 72
8
 73
4
 74
0
 40
0
 40
0
 40
0
 40
0
 40
1
 40
1
 40
1
 40
1
 10
33.463543
 20
10.232818
 30
0.0
 10
32.999441
 20
10.500767
 30
0.0
 10
32.427645
 20
10.500767
 30
0.0
 10
31.963543
 20
10.232818
 30
0.0
  0
SPLINE
  5
118
100
AcDbEntity
  8
Calque_1
 62
7
100
AcDbSpline
 70
8
 71
3
 72
8
 73
4
 74
0
 40
0
 40
0
 40
0
 40
0
 40
1
 40
1
 40
1
 40
1
 10
31.963543
 20
10.232818
 30
0.0
 10
31.499441
 20
9.964869
 30
0.0
 10
31.213543
 20
9.469678
 30
0.0
 10
31.213543
 20
8.933780
 30
0.0
  0
SPLINE
  5
119
100
AcDbEntity
  8
Calque_1
 62
7
100
AcDbSpline
 70
8
 71
3
 72
8
 73
4
 74
0
 40
0
 40
0
 40
0
 40
0
 40
1
 40
1
 40
1
 40
1
 10
31.213543
 20
8.933780
 30
0.0
 10
31.213543
 20
8.397882
 30
0.0
 10
31.499441
 20
7.902691
 30
0.0
 10
31.963543
 20
7.634742
 30
0.0
  0
SPLINE
  5
11a
100
AcDbEntity
  8
Calque_1
 62
7
100
AcDbSpline
 70
8
 71
3
 72
8
 73
4
 74
0
 40
0
 40
0
 40
0
 40
0
 40
1
 40
1
 40
1
 40
1
 10
31.963543
 20
7.634742
 30
0.0
 10
32.427645
 20
7.366793
 30
0.0
 10
32.999441
 20
7.366793
 30
0.0
 10
33.463543
 20
7.634742
 30
0.0
  0
SPLINE
  5
11b
100
AcDbEntity
  8
Calque_1
 62
7
100
AcDbSpline
 70
8
 71
3
 72
8
 73
4
 74
0
 40
0
 40
0
 40
0
 40
0
 40
1
 40
1
 40
1
 40
1
 10
33.463543
 20
7.634742
 30
0.0
 10
33.927645
 20
7.902691
 30
0.0
 10
34.213543
 20
8.397882
 30
0.0
 10
34.213543
 20
8.933780
 30
0.0
  0
LINE
  5
11c
100
AcDbEntity
  8
Calque_1
 62
7
100
AcDbLine
 10
34.213543
 20
8.933780
 30
0.0
 11
34.213543
 21
8.933780
 31
0.0
  0
SPLINE
  5
11d
100
AcDbEntity
  8
Calque_1
 62
7
100
AcDbSpline
 70
8
 71
3
 72
8
 73
4
 74
0
 40
0
 40
0
 40
0
 40
0
 40
1
 40
1
 40
1
 40
1
 10
54.213543
 20
8.933780
 30
0.0
 10
54.213543
 20
9.469678
 30
0.0
 10
53.927645
 20
9.964869
 30
0.0
 10
53.463543
 20
10.232818
 30
0.0
  0
SPLINE
  5
11e
100
AcDbEntity
  8
Calque_1
 62
7
100
AcDbSpline
 70
8
 71
3
 72
8
 73
4
 74
0
 40
0
 40
0
 40
0
 40
0
 40
1
 40
1
 40
1
 40
1
 10
53.463543
 20
10.232818
 30
0.0
 10
52.999441
 20
10.500767
 30
0.0
 10
52.427645
 20
10.500767
 30
0.0
 10
51.963543
 20
10.232818
 30
0.0
  0
SPLINE
  5
11f
100
AcDbEntity
  8
Calque_1
 62
7
100
AcDbSpline
 70
8
 71
3
 72
8
 73
4
 74
0
 40
0
 40
0
 40
0
 40
0
 40
1
 40
1
 40
1
 40
1
 10
51.963543
 20
10.232818
 30
0.0
 10
51.499441
 20
9.964869
 30
0.0
 10
51.213543
 20
9.469678
 30
0.0
 10
51.213543
 20
8.933780
 30
0.0
  0
SPLINE
  5
120
100
AcDbEntity
  8
Calque_1
 62
7
100
AcDbSpline
 70
8
 71
3
 72
8
 73
4
 74
0
 40
0
 40
0
 40
0
 40
0
 40
1
 40
1
 40
1
 40
1
 10
51.213543
 20
8.933780
 30
0.0
 10
51.213543
 20
8.397882
 30
0.0
 10
51.499441
 20
7.902691
 30
0.0
 10
51.963543
 20
7.634742
 30
0.0
  0
SPLINE
  5
121
100
AcDbEntity
  8
Calque_1
 62
7
100
AcDbSpline
 70
8
 71
3
 72
8
 73
4
 74
0
 40
0
 40
0
 40
0
 40
0
 40
1
 40
1
 40
1
 40
1
 10
51.963543
 20
7.634742
 30
0.0
 10
52.427645
 20
7.366793
 30
0.0
 10
52.999441
 20
7.366793
 30
0.0
 10
53.463543
 20
7.634742
 30
0.0
  0
SPLINE
  5
122
100
AcDbEntity
  8
Calque_1
 62
7
100
AcDbSpline
 70
8
 71
3
 72
8
 73
4
 74
0
 40
0
 40
0
 40
0
 40
0
 40
1
 40
1
 40
1
 40
1
 10
53.463543
 20
7.634742
 30
0.0
 10
53.927645
 20
7.902691
 30
0.0
 10
54.213543
 20
8.397882
 30
0.0
 10
54.213543
 20
8.933780
 30
0.0
  0
LINE
  5
123
100
AcDbEntity
  8
Calque_1
 62
7
100
AcDbLine
 10
54.213543
 20
8.933780
 30
0.0
 11
54.213543
 21
8.933780
 31
0.0
  0
LINE
  5
124
100
AcDbEntity
  8
Calque_1
 62
7
100
AcDbLine
 10
22.460255
 20
27.203320
 30
0.0
 11
22.460255
 21
47.203320
 31
0.0
  0
LINE
  5
125
100
AcDbEntity
  8
Calque_1
 62
7
100
AcDbLine
 10
22.460255
 20
47.203320
 30
0.0
 11
82.460255
 21
47.203320
 31
0.0
  0
LINE
  5
126
100
AcDbEntity
  8
Calque_1
 62
7
100
AcDbLine
 10
82.460255
 20
47.203320
 30
0.0
 11
82.460255
 21
42.203320
 31
0.0
  0
LINE
  5
127
100
AcDbEntity
  8
Calque_1
 62
7
100
AcDbLine
 10
82.460255
 20
42.203320
 30
0.0
 11
77.460255
 21
42.203320
 31
0.0
  0
LINE
  5
128
100
AcDbEntity
  8
Calque_1
 62
7
100
AcDbLine
 10
77.460255
 20
42.203320
 30
0.0
 11
77.460255
 21
32.203320
 31
0.0
  0
LINE
  5
129
100
AcDbEntity
  8
Calque_1
 62
7
100
AcDbLine
 10
77.460255
 20
32.203320
 30
0.0
 11
82.460255
 21
32.203320
 31
0.0
  0
LINE
  5
12a
100
AcDbEntity
  8
Calque_1
 62
7
100
AcDbLine
 10
82.460255
 20
32.203320
 30
0.0
 11
82.460255
 21
27.203320
 31
0.0
  0
LINE
  5
12b
100
AcDbEntity
  8
Calque_1
 62
7
100
AcDbLine
 10
82.460255
 20
27.203320
 30
0.0
 11
67.460255
 21
27.203320
 31
0.0
  0
LINE
  5
12c
100
AcDbEntity
  8
Calque_1
 62
7
100
AcDbLine
 10
67.460255
 20
27.203320
 30
0.0
 11
67.460255
 21
22.203320
 31
0.0
  0
LINE
  5
12d
100
AcDbEntity
  8
Calque_1
 62
7
100
AcDbLine
 10
67.460255
 20
22.203320
 30
0.0
 11
37.460255
 21
22.203320
 31
0.0
  0
LINE
  5
12e
100
AcDbEntity
  8
Calque_1
 62
7
100
AcDbLine
 10
37.460255
 20
22.203320
 30
0.0
 11
37.460255
 21
27.203320
 31
0.0
  0
LINE
  5
12f
100
AcDbEntity
  8
Calque_1
 62
7
100
AcDbLine
 10
37.460255
 20
27.203320
 30
0.0
 11
22.460255
 21
27.203320
 31
0.0
  0
LINE
  5
130
100
AcDbEntity
  8
Calque_1
 62
7
100
AcDbLine
 10
14.079128
 20
74.320078
 30
0.0
 11
14.131553
 21
64.320215
 31
0.0
  0
LINE
  5
131
100
AcDbEntity
  8
Calque_1
 62
7
100
AcDbLine
 10
14.131553
 20
64.320215
 30
0.0
 11
19.131484
 21
64.346428
 31
0.0
  0
LINE
  5
132
100
AcDbEntity
  8
Calque_1
 62
7
100
AcDbLine
 10
19.131484
 20
64.346428
 30
0.0
 11
19.183909
 21
54.346565
 31
0.0
  0
LINE
  5
133
100
AcDbEntity
  8
Calque_1
 62
7
100
AcDbLine
 10
19.183909
 20
54.346565
 30
0.0
 11
14.183977
 21
54.320353
 31
0.0
  0
LINE
  5
134
100
AcDbEntity
  8
Calque_1
 62
7
100
AcDbLine
 10
14.183977
 20
54.320353
 30
0.0
 11
14.210190
 21
49.320421
 31
0.0
  0
LINE
  5
135
100
AcDbEntity
  8
Calque_1
 62
7
100
AcDbLine
 10
14.210190
 20
49.320421
 30
0.0
 11
4.210327
 21
49.267997
 31
0.0
  0
LINE
  5
136
100
AcDbEntity
  8
Calque_1
 62
7
100
AcDbLine
 10
4.210327
 20
49.267997
 30
0.0
 11
4.105478
 21
69.267722
 31
0.0
  0
LINE
  5
137
100
AcDbEntity
  8
Calque_1
 62
7
100
AcDbLine
 10
4.105478
 20
69.267722
 30
0.0
 11
9.105409
 21
69.293934
 31
0.0
  0
LINE
  5
138
100
AcDbEntity
  8
Calque_1
 62
7
100
AcDbLine
 10
9.105409
 20
69.293934
 30
0.0
 11
9.079197
 21
74.293865
 31
0.0
  0
LINE
  5
139
100
AcDbEntity
  8
Calque_1
 62
7
100
AcDbLine
 10
9.079197
 20
74.293865
 30
0.0
 11
14.079128
 21
74.320078
 31
0.0
  0
LINE
  5
13a
100
AcDbEntity
  8
Calque_1
 62
7
100
AcDbLine
 10
22.262998
 20
49.582430
 30
0.0
 11
22.262998
 21
64.582430
 31
0.0
  0
LINE
  5
13b
100
AcDbEntity
  8
Calque_1
 62
7
100
AcDbLine
 10
22.262998
 20
64.582430
 30
0.0
 11
37.262998
 21
64.582430
 31
0.0
  0
LINE
  5
13c
100
AcDbEntity
  8
Calque_1
 62
7
100
AcDbLine
 10
37.262998
 20
64.582430
 30
0.0
 11
37.262998
 21
59.582430
 31
0.0
  0
LINE
  5
13d
100
AcDbEntity
  8
Calque_1
 62
7
100
AcDbLine
 10
37.262998
 20
59.582430
 30
0.0
 11
67.262998
 21
59.582430
 31
0.0
  0
LINE
  5
13e
100
AcDbEntity
  8
Calque_1
 62
7
100
AcDbLine
 10
67.262998
 20
59.582430
 30
0.0
 11
67.262998
 21
64.582430
 31
0.0
  0
LINE
  5
13f
100
AcDbEntity
  8
Calque_1
 62
7
100
AcDbLine
 10
67.262998
 20
64.582430
 30
0.0
 11
82.262998
 21
64.582430
 31
0.0
  0
LINE
  5
140
100
AcDbEntity
  8
Calque_1
 62
7
100
AcDbLine
 10
82.262998
 20
64.582430
 30
0.0
 11
82.262998
 21
59.582430
 31
0.0
  0
LINE
  5
141
100
AcDbEntity
  8
Calque_1
 62
7
100
AcDbLine
 10
82.262998
 20
59.582430
 30
0.0
 11
77.262998
 21
59.582430
 31
0.0
  0
LINE
  5
142
100
AcDbEntity
  8
Calque_1
 62
7
100
AcDbLine
 10
77.262998
 20
59.582430
 30
0.0
 11
77.262998
 21
54.582430
 31
0.0
  0
LINE
  5
143
100
AcDbEntity
  8
Calque_1
 62
7
100
AcDbLine
 10
77.262998
 20
54.582430
 30
0.0
 11
82.262998
 21
54.582430
 31
0.0
  0
LINE
  5
144
100
AcDbEntity
  8
Calque_1
 62
7
100
AcDbLine
 10
82.262998
 20
54.582430
 30
0.0
 11
82.262998
 21
49.582430
 31
0.0
  0
LINE
  5
145
100
AcDbEntity
  8
Calque_1
 62
7
100
AcDbLine
 10
82.262998
 20
49.582430
 30
0.0
 11
22.262998
 21
49.582430
 31
0.0
  0
SPLINE
  5
146
100
AcDbEntity
  8
Calque_1
 62
7
100
AcDbSpline
 70
8
 71
3
 72
8
 73
4
 74
0
 40
0
 40
0
 40
0
 40
0
 40
1
 40
1
 40
1
 40
1
 10
33.762998
 20
54.582430
 30
0.0
 10
33.762998
 20
55.118328
 30
0.0
 10
33.477100
 20
55.613519
 30
0.0
 10
33.012998
 20
55.881468
 30
0.0
  0
SPLINE
  5
147
100
AcDbEntity
  8
Calque_1
 62
7
100
AcDbSpline
 70
8
 71
3
 72
8
 73
4
 74
0
 40
0
 40
0
 40
0
 40
0
 40
1
 40
1
 40
1
 40
1
 10
33.012998
 20
55.881468
 30
0.0
 10
32.548896
 20
56.149417
 30
0.0
 10
31.977100
 20
56.149417
 30
0.0
 10
31.512998
 20
55.881468
 30
0.0
  0
SPLINE
  5
148
100
AcDbEntity
  8
Calque_1
 62
7
100
AcDbSpline
 70
8
 71
3
 72
8
 73
4
 74
0
 40
0
 40
0
 40
0
 40
0
 40
1
 40
1
 40
1
 40
1
 10
31.512998
 20
55.881468
 30
0.0
 10
31.048896
 20
55.613519
 30
0.0
 10
30.762998
 20
55.118328
 30
0.0
 10
30.762998
 20
54.582430
 30
0.0
  0
SPLINE
  5
149
100
AcDbEntity
  8
Calque_1
 62
7
100
AcDbSpline
 70
8
 71
3
 72
8
 73
4
 74
0
 40
0
 40
0
 40
0
 40
0
 40
1
 40
1
 40
1
 40
1
 10
30.762998
 20
54.582430
 30
0.0
 10
30.762998
 20
54.046532
 30
0.0
 10
31.048896
 20
53.551341
 30
0.0
 10
31.512998
 20
53.283392
 30
0.0
  0
SPLINE
  5
14a
100
AcDbEntity
  8
Calque_1
 62
7
100
AcDbSpline
 70
8
 71
3
 72
8
 73
4
 74
0
 40
0
 40
0
 40
0
 40
0
 40
1
 40
1
 40
1
 40
1
 10
31.512998
 20
53.283392
 30
0.0
 10
31.977100
 20
53.015443
 30
0.0
 10
32.548896
 20
53.015443
 30
0.0
 10
33.012998
 20
53.283392
 30
0.0
  0
SPLINE
  5
14b
100
AcDbEntity
  8
Calque_1
 62
7
100
AcDbSpline
 70
8
 71
3
 72
8
 73
4
 74
0
 40
0
 40
0
 40
0
 40
0
 40
1
 40
1
 40
1
 40
1
 10
33.012998
 20
53.283392
 30
0.0
 10
33.477100
 20
53.551341
 30
0.0
 10
33.762998
 20
54.046532
 30
0.0
 10
33.762998
 20
54.582430
 30
0.0
  0
LINE
  5
14c
100
AcDbEntity
  8
Calque_1
 62
7
100
AcDbLine
 10
33.762998
 20
54.582430
 30
0.0
 11
33.762998
 21
54.582430
 31
0.0
  0
SPLINE
  5
14d
100
AcDbEntity
  8
Calque_1
 62
7
100
AcDbSpline
 70
8
 71
3
 72
8
 73
4
 74
0
 40
0
 40
0
 40
0
 40
0
 40
1
 40
1
 40
1
 40
1
 10
53.762998
 20
54.582430
 30
0.0
 10
53.762998
 20
55.118328
 30
0.0
 10
53.477100
 20
55.613519
 30
0.0
 10
53.012998
 20
55.881468
 30
0.0
  0
SPLINE
  5
14e
100
AcDbEntity
  8
Calque_1
 62
7
100
AcDbSpline
 70
8
 71
3
 72
8
 73
4
 74
0
 40
0
 40
0
 40
0
 40
0
 40
1
 40
1
 40
1
 40
1
 10
53.012998
 20
55.881468
 30
0.0
 10
52.548896
 20
56.149417
 30
0.0
 10
51.977100
 20
56.149417
 30
0.0
 10
51.512998
 20
55.881468
 30
0.0
  0
SPLINE
  5
14f
100
AcDbEntity
  8
Calque_1
 62
7
100
AcDbSpline
 70
8
 71
3
 72
8
 73
4
 74
0
 40
0
 40
0
 40
0
 40
0
 40
1
 40
1
 40
1
 40
1
 10
51.512998
 20
55.881468
 30
0.0
 10
51.048896
 20
55.613519
 30
0.0
 10
50.762998
 20
55.118328
 30
0.0
 10
50.762998
 20
54.582430
 30
0.0
  0
SPLINE
  5
150
100
AcDbEntity
  8
Calque_1
 62
7
100
AcDbSpline
 70
8
 71
3
 72
8
 73
4
 74
0
 40
0
 40
0
 40
0
 40
0
 40
1
 40
1
 40
1
 40
1
 10
50.762998
 20
54.582430
 30
0.0
 10
50.762998
 20
54.046532
 30
0.0
 10
51.048896
 20
53.551341
 30
0.0
 10
51.512998
 20
53.283392
 30
0.0
  0
SPLINE
  5
151
100
AcDbEntity
  8
Calque_1
 62
7
100
AcDbSpline
 70
8
 71
3
 72
8
 73
4
 74
0
 40
0
 40
0
 40
0
 40
0
 40
1
 40
1
 40
1
 40
1
 10
51.512998
 20
53.283392
 30
0.0
 10
51.977100
 20
53.015443
 30
0.0
 10
52.548896
 20
53.015443
 30
0.0
 10
53.012998
 20
53.283392
 30
0.0
  0
SPLINE
  5
152
100
AcDbEntity
  8
Calque_1
 62
7
100
AcDbSpline
 70
8
 71
3
 72
8
 73
4
 74
0
 40
0
 40
0
 40
0
 40
0
 40
1
 40
1
 40
1
 40
1
 10
53.012998
 20
53.283392
 30
0.0
 10
53.477100
 20
53.551341
 30
0.0
 10
53.762998
 20
54.046532
 30
0.0
 10
53.762998
 20
54.582430
 30
0.0
  0
LINE
  5
153
100
AcDbEntity
  8
Calque_1
 62
7
100
AcDbLine
 10
53.762998
 20
54.582430
 30
0.0
 11
53.762998
 21
54.582430
 31
0.0
  0
LINE
  5
154
100
AcDbEntity
  8
Calque_1
 62
7
100
AcDbLine
 10
22.009710
 20
72.851970
 30
0.0
 11
22.009710
 21
92.851970
 31
0.0
  0
LINE
  5
155
100
AcDbEntity
  8
Calque_1
 62
7
100
AcDbLine
 10
22.009710
 20
92.851970
 30
0.0
 11
82.009710
 21
92.851970
 31
0.0
  0
LINE
  5
156
100
AcDbEntity
  8
Calque_1
 62
7
100
AcDbLine
 10
82.009710
 20
92.851970
 30
0.0
 11
82.009710
 21
87.851970
 31
0.0
  0
LINE
  5
157
100
AcDbEntity
  8
Calque_1
 62
7
100
AcDbLine
 10
82.009710
 20
87.851970
 30
0.0
 11
77.009710
 21
87.851970
 31
0.0
  0
LINE
  5
158
100
AcDbEntity
  8
Calque_1
 62
7
100
AcDbLine
 10
77.009710
 20
87.851970
 30
0.0
 11
77.009710
 21
77.851970
 31
0.0
  0
LINE
  5
159
100
AcDbEntity
  8
Calque_1
 62
7
100
AcDbLine
 10
77.009710
 20
77.851970
 30
0.0
 11
82.009710
 21
77.851970
 31
0.0
  0
LINE
  5
15a
100
AcDbEntity
  8
Calque_1
 62
7
100
AcDbLine
 10
82.009710
 20
77.851970
 30
0.0
 11
82.009710
 21
72.851970
 31
0.0
  0
LINE
  5
15b
100
AcDbEntity
  8
Calque_1
 62
7
100
AcDbLine
 10
82.009710
 20
72.851970
 30
0.0
 11
67.009710
 21
72.851970
 31
0.0
  0
LINE
  5
15c
100
AcDbEntity
  8
Calque_1
 62
7
100
AcDbLine
 10
67.009710
 20
72.851970
 30
0.0
 11
67.009710
 21
67.851970
 31
0.0
  0
LINE
  5
15d
100
AcDbEntity
  8
Calque_1
 62
7
100
AcDbLine
 10
67.009710
 20
67.851970
 30
0.0
 11
37.009710
 21
67.851970
 31
0.0
  0
LINE
  5
15e
100
AcDbEntity
  8
Calque_1
 62
7
100
AcDbLine
 10
37.009710
 20
67.851970
 30
0.0
 11
37.009710
 21
72.851970
 31
0.0
  0
LINE
  5
15f
100
AcDbEntity
  8
Calque_1
 62
7
100
AcDbLine
 10
37.009710
 20
72.851970
 30
0.0
 11
22.009710
 21
72.851970
 31
0.0
  0
LINE
  5
160
100
AcDbEntity
  8
Calque_1
 62
7
100
AcDbLine
 10
98.340919
 20
29.346538
 30
0.0
 11
98.393344
 21
19.346675
 31
0.0
  0
LINE
  5
161
100
AcDbEntity
  8
Calque_1
 62
7
100
AcDbLine
 10
98.393344
 20
19.346675
 30
0.0
 11
103.393275
 21
19.372888
 31
0.0
  0
LINE
  5
162
100
AcDbEntity
  8
Calque_1
 62
7
100
AcDbLine
 10
103.393275
 20
19.372888
 30
0.0
 11
103.445700
 21
9.373025
 31
0.0
  0
LINE
  5
163
100
AcDbEntity
  8
Calque_1
 62
7
100
AcDbLine
 10
103.445700
 20
9.373025
 30
0.0
 11
98.445768
 21
9.346813
 31
0.0
  0
LINE
  5
164
100
AcDbEntity
  8
Calque_1
 62
7
100
AcDbLine
 10
98.445768
 20
9.346813
 30
0.0
 11
98.471981
 21
4.346881
 31
0.0
  0
LINE
  5
165
100
AcDbEntity
  8
Calque_1
 62
7
100
AcDbLine
 10
98.471981
 20
4.346881
 30
0.0
 11
88.472118
 21
4.294457
 31
0.0
  0
LINE
  5
166
100
AcDbEntity
  8
Calque_1
 62
7
100
AcDbLine
 10
88.472118
 20
4.294457
 30
0.0
 11
88.367269
 21
24.294182
 31
0.0
  0
LINE
  5
167
100
AcDbEntity
  8
Calque_1
 62
7
100
AcDbLine
 10
88.367269
 20
24.294182
 30
0.0
 11
93.367200
 21
24.320394
 31
0.0
  0
LINE
  5
168
100
AcDbEntity
  8
Calque_1
 62
7
100
AcDbLine
 10
93.367200
 20
24.320394
 30
0.0
 11
93.340988
 21
29.320325
 31
0.0
  0
LINE
  5
169
100
AcDbEntity
  8
Calque_1
 62
7
100
AcDbLine
 10
93.340988
 20
29.320325
 30
0.0
 11
98.340919
 21
29.346538
 31
0.0
  0
LINE
  5
16a
100
AcDbEntity
  8
Calque_1
 62
7
100
AcDbLine
 10
106.524790
 20
4.608890
 30
0.0
 11
106.524790
 21
19.608890
 31
0.0
  0
LINE
  5
16b
100
AcDbEntity
  8
Calque_1
 62
7
100
AcDbLine
 10
106.524790
 20
19.608890
 30
0.0
 11
121.524790
 21
19.608890
 31
0.0
  0
LINE
  5
16c
100
AcDbEntity
  8
Calque_1
 62
7
100
AcDbLine
 10
121.524790
 20
19.608890
 30
0.0
 11
121.524790
 21
14.608890
 31
0.0
  0
LINE
  5
16d
100
AcDbEntity
  8
Calque_1
 62
7
100
AcDbLine
 10
121.524790
 20
14.608890
 30
0.0
 11
151.524790
 21
14.608890
 31
0.0
  0
LINE
  5
16e
100
AcDbEntity
  8
Calque_1
 62
7
100
AcDbLine
 10
151.524790
 20
14.608890
 30
0.0
 11
151.524790
 21
19.608890
 31
0.0
  0
LINE
  5
16f
100
AcDbEntity
  8
Calque_1
 62
7
100
AcDbLine
 10
151.524790
 20
19.608890
 30
0.0
 11
166.524790
 21
19.608890
 31
0.0
  0
LINE
  5
170
100
AcDbEntity
  8
Calque_1
 62
7
100
AcDbLine
 10
166.524790
 20
19.608890
 30
0.0
 11
166.524790
 21
14.608890
 31
0.0
  0
LINE
  5
171
100
AcDbEntity
  8
Calque_1
 62
7
100
AcDbLine
 10
166.524790
 20
14.608890
 30
0.0
 11
161.524790
 21
14.608890
 31
0.0
  0
LINE
  5
172
100
AcDbEntity
  8
Calque_1
 62
7
100
AcDbLine
 10
161.524790
 20
14.608890
 30
0.0
 11
161.524790
 21
9.608890
 31
0.0
  0
LINE
  5
173
100
AcDbEntity
  8
Calque_1
 62
7
100
AcDbLine
 10
161.524790
 20
9.608890
 30
0.0
 11
166.524790
 21
9.608890
 31
0.0
  0
LINE
  5
174
100
AcDbEntity
  8
Calque_1
 62
7
100
AcDbLine
 10
166.524790
 20
9.608890
 30
0.0
 11
166.524790
 21
4.608890
 31
0.0
  0
LINE
  5
175
100
AcDbEntity
  8
Calque_1
 62
7
100
AcDbLine
 10
166.524790
 20
4.608890
 30
0.0
 11
106.524790
 21
4.608890
 31
0.0
  0
SPLINE
  5
176
100
AcDbEntity
  8
Calque_1
 62
7
100
AcDbSpline
 70
8
 71
3
 72
8
 73
4
 74
0
 40
0
 40
0
 40
0
 40
0
 40
1
 40
1
 40
1
 40
1
 10
118.024790
 20
9.608890
 30
0.0
 10
118.024790
 20
10.144788
 30
0.0
 10
117.738892
 20
10.639979
 30
0.0
 10
117.274790
 20
10.907928
 30
0.0
  0
SPLINE
  5
177
100
AcDbEntity
  8
Calque_1
 62
7
100
AcDbSpline
 70
8
 71
3
 72
8
 73
4
 74
0
 40
0
 40
0
 40
0
 40
0
 40
1
 40
1
 40
1
 40
1
 10
117.274790
 20
10.907928
 30
0.0
 10
116.810688
 20
11.175877
 30
0.0
 10
116.238892
 20
11.175877
 30
0.0
 10
115.774790
 20
10.907928
 30
0.0
  0
SPLINE
  5
178
100
AcDbEntity
  8
Calque_1
 62
7
100
AcDbSpline
 70
8
 71
3
 72
8
 73
4
 74
0
 40
0
 40
0
 40
0
 40
0
 40
1
 40
1
 40
1
 40
1
 10
115.774790
 20
10.907928
 30
0.0
 10
115.310688
 20
10.639979
 30
0.0
 10
115.024790
 20
10.144788
 30
0.0
 10
115.024790
 20
9.608890
 30
0.0
  0
SPLINE
  5
179
100
AcDbEntity
  8
Calque_1
 62
7
100
AcDbSpline
 70
8
 71
3
 72
8
 73
4
 74
0
 40
0
 40
0
 40
0
 40
0
 40
1
 40
1
 40
1
 40
1
 10
115.024790
 20
9.608890
 30
0.0
 10
115.024790
 20
9.072992
 30
0.0
 10
115.310688
 20
8.577801
 30
0.0
 10
115.774790
 20
8.309852
 30
0.0
  0
SPLINE
  5
17a
100
AcDbEntity
  8
Calque_1
 62
7
100
AcDbSpline
 70
8
 71
3
 72
8
 73
4
 74
0
 40
0
 40
0
 40
0
 40
0
 40
1
 40
1
 40
1
 40
1
 10
115.774790
 20
8.309852
 30
0.0
 10
116.238892
 20
8.041903
 30
0.0
 10
116.810688
 20
8.041903
 30
0.0
 10
117.274790
 20
8.309852
 30
0.0
  0
SPLINE
  5
17b
100
AcDbEntity
  8
Calque_1
 62
7
100
AcDbSpline
 70
8
 71
3
 72
8
 73
4
 74
0
 40
0
 40
0
 40
0
 40
0
 40
1
 40
1
 40
1
 40
1
 10
117.274790
 20
8.309852
 30
0.0
 10
117.738892
 20
8.577801
 30
0.0
 10
118.024790
 20
9.072992
 30
0.0
 10
118.024790
 20
9.608890
 30
0.0
  0
LINE
  5
17c
100
AcDbEntity
  8
Calque_1
 62
7
100
AcDbLine
 10
118.024790
 20
9.608890
 30
0.0
 11
118.024790
 21
9.608890
 31
0.0
  0
SPLINE
  5
17d
100
AcDbEntity
  8
Calque_1
 62
7
100
AcDbSpline
 70
8
 71
3
 72
8
 73
4
 74
0
 40
0
 40
0
 40
0
 40
0
 40
1
 40
1
 40
1
 40
1
 10
138.024790
 20
9.608890
 30
0.0
 10
138.024790
 20
10.144788
 30
0.0
 10
137.738892
 20
10.639979
 30
0.0
 10
137.274790
 20
10.907928
 30
0.0
  0
SPLINE
  5
17e
100
AcDbEntity
  8
Calque_1
 62
7
100
AcDbSpline
 70
8
 71
3
 72
8
 73
4
 74
0
 40
0
 40
0
 40
0
 40
0
 40
1
 40
1
 40
1
 40
1
 10
137.274790
 20
10.907928
 30
0.0
 10
136.810688
 20
11.175877
 30
0.0
 10
136.238892
 20
11.175877
 30
0.0
 10
135.774790
 20
10.907928
 30
0.0
  0
SPLINE
  5
17f
100
AcDbEntity
  8
Calque_1
 62
7
100
AcDbSpline
 70
8
 71
3
 72
8
 73
4
 74
0
 40
0
 40
0
 40
0
 40
0
 40
1
 40
1
 40
1
 40
1
 10
135.774790
 20
10.907928
 30
0.0
 10
135.310688
 20
10.639979
 30
0.0
 10
135.024790
 20
10.144788
 30
0.0
 10
135.024790
 20
9.608890
 30
0.0
  0
SPLINE
  5
180
100
AcDbEntity
  8
Calque_1
 62
7
100
AcDbSpline
 70
8
 71
3
 72
8
 73
4
 74
0
 40
0
 40
0
 40
0
 40
0
 40
1
 40
1
 40
1
 40
1
 10
135.024790
 20
9.608890
 30
0.0
 10
135.024790
 20
9.072992
 30
0.0
 10
135.310688
 20
8.577801
 30
0.0
 10
135.774790
 20
8.309852
 30
0.0
  0
SPLINE
  5
181
100
AcDbEntity
  8
Calque_1
 62
7
100
AcDbSpline
 70
8
 71
3
 72
8
 73
4
 74
0
 40
0
 40
0
 40
0
 40
0
 40
1
 40
1
 40
1
 40
1
 10
135.774790
 20
8.309852
 30
0.0
 10
136.238892
 20
8.041903
 30
0.0
 10
136.810688
 20
8.041903
 30
0.0
 10
137.274790
 20
8.309852
 30
0.0
  0
SPLINE
  5
182
100
AcDbEntity
  8
Calque_1
 62
7
100
AcDbSpline
 70
8
 71
3
 72
8
 73
4
 74
0
 40
0
 40
0
 40
0
 40
0
 40
1
 40
1
 40
1
 40
1
 10
137.274790
 20
8.309852
 30
0.0
 10
137.738892
 20
8.577801
 30
0.0
 10
138.024790
 20
9.072992
 30
0.0
 10
138.024790
 20
9.608890
 30
0.0
  0
LINE
  5
183
100
AcDbEntity
  8
Calque_1
 62
7
100
AcDbLine
 10
138.024790
 20
9.608890
 30
0.0
 11
138.024790
 21
9.608890
 31
0.0
  0
LINE
  5
184
100
AcDbEntity
  8
Calque_1
 62
7
100
AcDbLine
 10
106.271500
 20
27.878440
 30
0.0
 11
106.271500
 21
47.878440
 31
0.0
  0
LINE
  5
185
100
AcDbEntity
  8
Calque_1
 62
7
100
AcDbLine
 10
106.271500
 20
47.878440
 30
0.0
 11
166.271500
 21
47.878440
 31
0.0
  0
LINE
  5
186
100
AcDbEntity
  8
Calque_1
 62
7
100
AcDbLine
 10
166.271500
 20
47.878440
 30
0.0
 11
166.271500
 21
42.878440
 31
0.0
  0
LINE
  5
187
100
AcDbEntity
  8
Calque_1
 62
7
100
AcDbLine
 10
166.271500
 20
42.878440
 30
0.0
 11
161.271500
 21
42.878440
 31
0.0
  0
LINE
  5
188
100
AcDbEntity
  8
Calque_1
 62
7
100
AcDbLine
 10
161.271500
 20
42.878440
 30
0.0
 11
161.271500
 21
32.878440
 31
0.0
  0
LINE
  5
189
100
AcDbEntity
  8
Calque_1
 62
7
100
AcDbLine
 10
161.271500
 20
32.878440
 30
0.0
 11
166.271500
 21
32.878440
 31
0.0
  0
LINE
  5
18a
100
AcDbEntity
  8
Calque_1
 62
7
100
AcDbLine
 10
166.271500
 20
32.878440
 30
0.0
 11
166.271500
 21
27.878440
 31
0.0
  0
LINE
  5
18b
100
AcDbEntity
  8
Calque_1
 62
7
100
AcDbLine
 10
166.271500
 20
27.878440
 30
0.0
 11
151.271500
 21
27.878440
 31
0.0
  0
LINE
  5
18c
100
AcDbEntity
  8
Calque_1
 62
7
100
AcDbLine
 10
151.271500
 20
27.878440
 30
0.0
 11
151.271500
 21
22.878440
 31
0.0
  0
LINE
  5
18d
100
AcDbEntity
  8
Calque_1
 62
7
100
AcDbLine
 10
151.271500
 20
22.878440
 30
0.0
 11
121.271500
 21
22.878440
 31
0.0
  0
LINE
  5
18e
100
AcDbEntity
  8
Calque_1
 62
7
100
AcDbLine
 10
121.271500
 20
22.878440
 30
0.0
 11
121.271500
 21
27.878440
 31
0.0
  0
LINE
  5
18f
100
AcDbEntity
  8
Calque_1
 62
7
100
AcDbLine
 10
121.271500
 20
27.878440
 30
0.0
 11
106.271500
 21
27.878440
 31
0.0
  0
LINE
  5
190
100
AcDbEntity
  8
Calque_1
 62
7
100
AcDbLine
 10
97.890369
 20
74.995208
 30
0.0
 11
97.942794
 21
64.995345
 31
0.0
  0
LINE
  5
191
100
AcDbEntity
  8
Calque_1
 62
7
100
AcDbLine
 10
97.942794
 20
64.995345
 30
0.0
 11
102.942725
 21
65.021558
 31
0.0
  0
LINE
  5
192
100
AcDbEntity
  8
Calque_1
 62
7
100
AcDbLine
 10
102.942725
 20
65.021558
 30
0.0
 11
102.995150
 21
55.021695
 31
0.0
  0
LINE
  5
193
100
AcDbEntity
  8
Calque_1
 62
7
100
AcDbLine
 10
102.995150
 20
55.021695
 30
0.0
 11
97.995218
 21
54.995483
 31
0.0
  0
LINE
  5
194
100
AcDbEntity
  8
Calque_1
 62
7
100
AcDbLine
 10
97.995218
 20
54.995483
 30
0.0
 11
98.021431
 21
49.995551
 31
0.0
  0
LINE
  5
195
100
AcDbEntity
  8
Calque_1
 62
7
100
AcDbLine
 10
98.021431
 20
49.995551
 30
0.0
 11
88.021568
 21
49.943127
 31
0.0
  0
LINE
  5
196
100
AcDbEntity
  8
Calque_1
 62
7
100
AcDbLine
 10
88.021568
 20
49.943127
 30
0.0
 11
87.916719
 21
69.942852
 31
0.0
  0
LINE
  5
197
100
AcDbEntity
  8
Calque_1
 62
7
100
AcDbLine
 10
87.916719
 20
69.942852
 30
0.0
 11
92.916650
 21
69.969064
 31
0.0
  0
LINE
  5
198
100
AcDbEntity
  8
Calque_1
 62
7
100
AcDbLine
 10
92.916650
 20
69.969064
 30
0.0
 11
92.890438
 21
74.968995
 31
0.0
  0
LINE
  5
199
100
AcDbEntity
  8
Calque_1
 62
7
100
AcDbLine
 10
92.890438
 20
74.968995
 30
0.0
 11
97.890369
 21
74.995208
 31
0.0
  0
LINE
  5
19a
100
AcDbEntity
  8
Calque_1
 62
7
100
AcDbLine
 10
106.074240
 20
50.257560
 30
0.0
 11
106.074240
 21
65.257560
 31
0.0
  0
LINE
  5
19b
100
AcDbEntity
  8
Calque_1
 62
7
100
AcDbLine
 10
106.074240
 20
65.257560
 30
0.0
 11
121.074240
 21
65.257560
 31
0.0
  0
LINE
  5
19c
100
AcDbEntity
  8
Calque_1
 62
7
100
AcDbLine
 10
121.074240
 20
65.257560
 30
0.0
 11
121.074240
 21
60.257560
 31
0.0
  0
LINE
  5
19d
100
AcDbEntity
  8
Calque_1
 62
7
100
AcDbLine
 10
121.074240
 20
60.257560
 30
0.0
 11
151.074240
 21
60.257560
 31
0.0
  0
LINE
  5
19e
100
AcDbEntity
  8
Calque_1
 62
7
100
AcDbLine
 10
151.074240
 20
60.257560
 30
0.0
 11
151.074240
 21
65.257560
 31
0.0
  0
LINE
  5
19f
100
AcDbEntity
  8
Calque_1
 62
7
100
AcDbLine
 10
151.074240
 20
65.257560
 30
0.0
 11
166.074240
 21
65.257560
 31
0.0
  0
LINE
  5
1a0
100
AcDbEntity
  8
Calque_1
 62
7
100
AcDbLine
 10
166.074240
 20
65.257560
 30
0.0
 11
166.074240
 21
60.257560
 31
0.0
  0
LINE
  5
1a1
100
AcDbEntity
  8
Calque_1
 62
7
100
AcDbLine
 10
166.074240
 20
60.257560
 30
0.0
 11
161.074240
 21
60.257560
 31
0.0
  0
LINE
  5
1a2
100
AcDbEntity
  8
Calque_1
 62
7
100
AcDbLine
 10
161.074240
 20
60.257560
 30
0.0
 11
161.074240
 21
55.257560
 31
0.0
  0
LINE
  5
1a3
100
AcDbEntity
  8
Calque_1
 62
7
100
AcDbLine
 10
161.074240
 20
55.257560
 30
0.0
 11
166.074240
 21
55.257560
 31
0.0
  0
LINE
  5
1a4
100
AcDbEntity
  8
Calque_1
 62
7
100
AcDbLine
 10
166.074240
 20
55.257560
 30
0.0
 11
166.074240
 21
50.257560
 31
0.0
  0
LINE
  5
1a5
100
AcDbEntity
  8
Calque_1
 62
7
100
AcDbLine
 10
166.074240
 20
50.257560
 30
0.0
 11
106.074240
 21
50.257560
 31
0.0
  0
SPLINE
  5
1a6
100
AcDbEntity
  8
Calque_1
 62
7
100
AcDbSpline
 70
8
 71
3
 72
8
 73
4
 74
0
 40
0
 40
0
 40
0
 40
0
 40
1
 40
1
 40
1
 40
1
 10
117.574240
 20
55.257560
 30
0.0
 10
117.574240
 20
55.793458
 30
0.0
 10
117.288342
 20
56.288649
 30
0.0
 10
116.824240
 20
56.556598
 30
0.0
  0
SPLINE
  5
1a7
100
AcDbEntity
  8
Calque_1
 62
7
100
AcDbSpline
 70
8
 71
3
 72
8
 73
4
 74
0
 40
0
 40
0
 40
0
 40
0
 40
1
 40
1
 40
1
 40
1
 10
116.824240
 20
56.556598
 30
0.0
 10
116.360138
 20
56.824547
 30
0.0
 10
115.788342
 20
56.824547
 30
0.0
 10
115.324240
 20
56.556598
 30
0.0
  0
SPLINE
  5
1a8
100
AcDbEntity
  8
Calque_1
 62
7
100
AcDbSpline
 70
8
 71
3
 72
8
 73
4
 74
0
 40
0
 40
0
 40
0
 40
0
 40
1
 40
1
 40
1
 40
1
 10
115.324240
 20
56.556598
 30
0.0
 10
114.860138
 20
56.288649
 30
0.0
 10
114.574240
 20
55.793458
 30
0.0
 10
114.574240
 20
55.257560
 30
0.0
  0
SPLINE
  5
1a9
100
AcDbEntity
  8
Calque_1
 62
7
100
AcDbSpline
 70
8
 71
3
 72
8
 73
4
 74
0
 40
0
 40
0
 40
0
 40
0
 40
1
 40
1
 40
1
 40
1
 10
114.574240
 20
55.257560
 30
0.0
 10
114.574240
 20
54.721662
 30
0.0
 10
114.860138
 20
54.226471
 30
0.0
 10
115.324240
 20
53.958522
 30
0.0
  0
SPLINE
  5
1aa
100
AcDbEntity
  8
Calque_1
 62
7
100
AcDbSpline
 70
8
 71
3
 72
8
 73
4
 74
0
 40
0
 40
0
 40
0
 40
0
 40
1
 40
1
 40
1
 40
1
 10
115.324240
 20
53.958522
 30
0.0
 10
115.788342
 20
53.690573
 30
0.0
 10
116.360138
 20
53.690573
 30
0.0
 10
116.824240
 20
53.958522
 30
0.0
  0
SPLINE
  5
1ab
100
AcDbEntity
  8
Calque_1
 62
7
100
AcDbSpline
 70
8
 71
3
 72
8
 73
4
 74
0
 40
0
 40
0
 40
0
 40
0
 40
1
 40
1
 40
1
 40
1
 10
116.824240
 20
53.958522
 30
0.0
 10
117.288342
 20
54.226471
 30
0.0
 10
117.574240
 20
54.721662
 30
0.0
 10
117.574240
 20
55.257560
 30
0.0
  0
LINE
  5
1ac
100
AcDbEntity
  8
Calque_1
 62
7
100
AcDbLine
 10
117.574240
 20
55.257560
 30
0.0
 11
117.574240
 21
55.257560
 31
0.0
  0
SPLINE
  5
1ad
100
AcDbEntity
  8
Calque_1
 62
7
100
AcDbSpline
 70
8
 71
3
 72
8
 73
4
 74
0
 40
0
 40
0
 40
0
 40
0
 40
1
 40
1
 40
1
 40
1
 10
137.574240
 20
55.257560
 30
0.0
 10
137.574240
 20
55.793458
 30
0.0
 10
137.288342
 20
56.288649
 30
0.0
 10
136.824240
 20
56.556598
 30
0.0
  0
SPLINE
  5
1ae
100
AcDbEntity
  8
Calque_1
 62
7
100
AcDbSpline
 70
8
 71
3
 72
8
 73
4
 74
0
 40
0
 40
0
 40
0
 40
0
 40
1
 40
1
 40
1
 40
1
 10
136.824240
 20
56.556598
 30
0.0
 10
136.360138
 20
56.824547
 30
0.0
 10
135.788342
 20
56.824547
 30
0.0
 10
135.324240
 20
56.556598
 30
0.0
  0
SPLINE
  5
1af
100
AcDbEntity
  8
Calque_1
 62
7
100
AcDbSpline
 70
8
 71
3
 72
8
 73
4
 74
0
 40
0
 40
0
 40
0
 40
0
 40
1
 40
1
 40
1
 40
1
 10
135.324240
 20
56.556598
 30
0.0
 10
134.860138
 20
56.288649
 30
0.0
 10
134.574240
 20
55.793458
 30
0.0
 10
134.574240
 20
55.257560
 30
0.0
  0
SPLINE
  5
1b0
100
AcDbEntity
  8
Calque_1
 62
7
100
AcDbSpline
 70
8
 71
3
 72
8
 73
4
 74
0
 40
0
 40
0
 40
0
 40
0
 40
1
 40
1
 40
1
 40
1
 10
134.574240
 20
55.257560
 30
0.0
 10
134.574240
 20
54.721662
 30
0.0
 10
134.860138
 20
54.226471
 30
0.0
 10
135.324240
 20
53.958522
 30
0.0
  0
SPLINE
  5
1b1
100
AcDbEntity
  8
Calque_1
 62
7
100
AcDbSpline
 70
8
 71
3
 72
8
 73
4
 74
0
 40
0
 40
0
 40
0
 40
0
 40
1
 40
1
 40
1
 40
1
 10
135.324240
 20
53.958522
 30
0.0
 10
135.788342
 20
53.690573
 30
0.0
 10
136.360138
 20
53.690573
 30
0.0
 10
136.824240
 20
53.958522
 30
0.0
  0
SPLINE
  5
1b2
100
AcDbEntity
  8
Calque_1
 62
7
100
AcDbSpline
 70
8
 71
3
 72
8
 73
4
 74
0
 40
0
 40
0
 40
0
 40
0
 40
1
 40
1
 40
1
 40
1
 10
136.824240
 20
53.958522
 30
0.0
 10
137.288342
 20
54.226471
 30
0.0
 10
137.574240
 20
54.721662
 30
0.0
 10
137.574240
 20
55.257560
 30
0.0
  0
LINE
  5
1b3
100
AcDbEntity
  8
Calque_1
 62
7
100
AcDbLine
 10
137.574240
 20
55.257560
 30
0.0
 11
137.574240
 21
55.257560
 31
0.0
  0
LINE
  5
1b4
100
AcDbEntity
  8
Calque_1
 62
7
100
AcDbLine
 10
105.820950
 20
73.527090
 30
0.0
 11
105.820950
 21
93.527090
 31
0.0
  0
LINE
  5
1b5
100
AcDbEntity
  8
Calque_1
 62
7
100
AcDbLine
 10
105.820950
 20
93.527090
 30
0.0
 11
165.820950
 21
93.527090
 31
0.0
  0
LINE
  5
1b6
100
AcDbEntity
  8
Calque_1
 62
7
100
AcDbLine
 10
165.820950
 20
93.527090
 30
0.0
 11
165.820950
 21
88.527090
 31
0.0
  0
LINE
  5
1b7
100
AcDbEntity
  8
Calque_1
 62
7
100
AcDbLine
 10
165.820950
 20
88.527090
 30
0.0
 11
160.820950
 21
88.527090
 31
0.0
  0
LINE
  5
1b8
100
AcDbEntity
  8
Calque_1
 62
7
100
AcDbLine
 10
160.820950
 20
88.527090
 30
0.0
 11
160.820950
 21
78.527090
 31
0.0
  0
LINE
  5
1b9
100
AcDbEntity
  8
Calque_1
 62
7
100
AcDbLine
 10
160.820950
 20
78.527090
 30
0.0
 11
165.820950
 21
78.527090
 31
0.0
  0
LINE
  5
1ba
100
AcDbEntity
  8
Calque_1
 62
7
100
AcDbLine
 10
165.820950
 20
78.527090
 30
0.0
 11
165.820950
 21
73.527090
 31
0.0
  0
LINE
  5
1bb
100
AcDbEntity
  8
Calque_1
 62
7
100
AcDbLine
 10
165.820950
 20
73.527090
 30
0.0
 11
150.820950
 21
73.527090
 31
0.0
  0
LINE
  5
1bc
100
AcDbEntity
  8
Calque_1
 62
7
100
AcDbLine
 10
150.820950
 20
73.527090
 30
0.0
 11
150.820950
 21
68.527090
 31
0.0
  0
LINE
  5
1bd
100
AcDbEntity
  8
Calque_1
 62
7
100
AcDbLine
 10
150.820950
 20
68.527090
 30
0.0
 11
120.820950
 21
68.527090
 31
0.0
  0
LINE
  5
1be
100
AcDbEntity
  8
Calque_1
 62
7
100
AcDbLine
 10
120.820950
 20
68.527090
 30
0.0
 11
120.820950
 21
73.527090
 31
0.0
  0
LINE
  5
1bf
100
AcDbEntity
  8
Calque_1
 62
7
100
AcDbLine
 10
120.820950
 20
73.527090
 30
0.0
 11
105.820950
 21
73.527090
 31
0.0
  0
LINE
  5
1c0
100
AcDbEntity
  8
Calque_1
 62
7
100
AcDbLine
 10
5.969786
 20
85.825090
 30
0.0
 11
5.969786
 21
104.493634
 31
0.0
  0
LINE
  5
1c1
100
AcDbEntity
  8
Calque_1
 62
7
100
AcDbLine
 10
5.969786
 20
104.493634
 30
0.0
 11
75.969787
 21
100.825089
 31
0.0
  0
LINE
  5
1c2
100
AcDbEntity
  8
Calque_1
 62
7
100
AcDbLine
 10
75.969787
 20
100.825089
 30
0.0
 11
45.969787
 21
100.825089
 31
0.0
  0
LINE
  5
1c3
100
AcDbEntity
  8
Calque_1
 62
7
100
AcDbLine
 10
45.969787
 20
100.825089
 30
0.0
 11
45.969787
 21
95.825090
 31
0.0
  0
LINE
  5
1c4
100
AcDbEntity
  8
Calque_1
 62
7
100
AcDbLine
 10
45.969787
 20
95.825090
 30
0.0
 11
25.969787
 21
95.825090
 31
0.0
  0
LINE
  5
1c5
100
AcDbEntity
  8
Calque_1
 62
7
100
AcDbLine
 10
25.969787
 20
95.825090
 30
0.0
 11
25.969787
 21
100.825089
 31
0.0
  0
LINE
  5
1c6
100
AcDbEntity
  8
Calque_1
 62
7
100
AcDbLine
 10
25.969787
 20
100.825089
 30
0.0
 11
15.969787
 21
100.825089
 31
0.0
  0
LINE
  5
1c7
100
AcDbEntity
  8
Calque_1
 62
7
100
AcDbLine
 10
15.969787
 20
100.825089
 30
0.0
 11
15.969787
 21
85.825090
 31
0.0
  0
LINE
  5
1c8
100
AcDbEntity
  8
Calque_1
 62
7
100
AcDbLine
 10
15.969787
 20
85.825090
 30
0.0
 11
5.969786
 21
85.825090
 31
0.0
  0
LINE
  5
1c9
100
AcDbEntity
  8
Calque_1
 62
7
100
AcDbLine
 10
6.282839
 20
108.589212
 30
0.0
 11
126.282839
 21
108.589212
 31
0.0
  0
LINE
  5
1ca
100
AcDbEntity
  8
Calque_1
 62
7
100
AcDbLine
 10
126.282839
 20
108.589212
 30
0.0
 11
126.282839
 21
133.589212
 31
0.0
  0
LINE
  5
1cb
100
AcDbEntity
  8
Calque_1
 62
7
100
AcDbLine
 10
126.282839
 20
133.589212
 30
0.0
 11
6.282839
 21
133.589212
 31
0.0
  0
LINE
  5
1cc
100
AcDbEntity
  8
Calque_1
 62
7
100
AcDbLine
 10
6.282839
 20
133.589212
 30
0.0
 11
6.282839
 21
108.589212
 31
0.0
  0
SPLINE
  5
1cd
100
AcDbEntity
  8
Calque_1
 62
7
100
AcDbSpline
 70
8
 71
3
 72
8
 73
4
 74
0
 40
0
 40
0
 40
0
 40
0
 40
1
 40
1
 40
1
 40
1
 10
37.782839
 20
126.089212
 30
0.0
 10
37.782839
 20
126.625110
 30
0.0
 10
37.496940
 20
127.120301
 30
0.0
 10
37.032839
 20
127.388250
 30
0.0
  0
SPLINE
  5
1ce
100
AcDbEntity
  8
Calque_1
 62
7
100
AcDbSpline
 70
8
 71
3
 72
8
 73
4
 74
0
 40
0
 40
0
 40
0
 40
0
 40
1
 40
1
 40
1
 40
1
 10
37.032839
 20
127.388250
 30
0.0
 10
36.568737
 20
127.656199
 30
0.0
 10
35.996940
 20
127.656199
 30
0.0
 10
35.532839
 20
127.388250
 30
0.0
  0
SPLINE
  5
1cf
100
AcDbEntity
  8
Calque_1
 62
7
100
AcDbSpline
 70
8
 71
3
 72
8
 73
4
 74
0
 40
0
 40
0
 40
0
 40
0
 40
1
 40
1
 40
1
 40
1
 10
35.532839
 20
127.388250
 30
0.0
 10
35.068737
 20
127.120301
 30
0.0
 10
34.782839
 20
126.625110
 30
0.0
 10
34.782839
 20
126.089212
 30
0.0
  0
SPLINE
  5
1d0
100
AcDbEntity
  8
Calque_1
 62
7
100
AcDbSpline
 70
8
 71
3
 72
8
 73
4
 74
0
 40
0
 40
0
 40
0
 40
0
 40
1
 40
1
 40
1
 40
1
 10
34.782839
 20
126.089212
 30
0.0
 10
34.782839
 20
125.553314
 30
0.0
 10
35.068737
 20
125.058123
 30
0.0
 10
35.532839
 20
124.790174
 30
0.0
  0
SPLINE
  5
1d1
100
AcDbEntity
  8
Calque_1
 62
7
100
AcDbSpline
 70
8
 71
3
 72
8
 73
4
 74
0
 40
0
 40
0
 40
0
 40
0
 40
1
 40
1
 40
1
 40
1
 10
35.532839
 20
124.790174
 30
0.0
 10
35.996940
 20
124.522225
 30
0.0
 10
36.568737
 20
124.522225
 30
0.0
 10
37.032839
 20
124.790174
 30
0.0
  0
SPLINE
  5
1d2
100
AcDbEntity
  8
Calque_1
 62
7
100
AcDbSpline
 70
8
 71
3
 72
8
 73
4
 74
0
 40
0
 40
0
 40
0
 40
0
 40
1
 40
1
 40
1
 40
1
 10
37.032839
 20
124.790174
 30
0.0
 10
37.496940
 20
125.058123
 30
0.0
 10
37.782839
 20
125.553314
 30
0.0
 10
37.782839
 20
126.089212
 30
0.0
  0
LINE
  5
1d3
100
AcDbEntity
  8
Calque_1
 62
7
100
AcDbLine
 10
37.782839
 20
126.089212
 30
0.0
 11
37.782839
 21
126.089212
 31
0.0
  0
SPLINE
  5
1d4
100
AcDbEntity
  8
Calque_1
 62
7
100
AcDbSpline
 70
8
 71
3
 72
8
 73
4
 74
0
 40
0
 40
0
 40
0
 40
0
 40
1
 40
1
 40
1
 40
1
 10
97.782839
 20
126.089212
 30
0.0
 10
97.782839
 20
126.625110
 30
0.0
 10
97.496940
 20
127.120301
 30
0.0
 10
97.032839
 20
127.388250
 30
0.0
  0
SPLINE
  5
1d5
100
AcDbEntity
  8
Calque_1
 62
7
100
AcDbSpline
 70
8
 71
3
 72
8
 73
4
 74
0
 40
0
 40
0
 40
0
 40
0
 40
1
 40
1
 40
1
 40
1
 10
97.032839
 20
127.388250
 30
0.0
 10
96.568737
 20
127.656199
 30
0.0
 10
95.996940
 20
127.656199
 30
0.0
 10
95.532839
 20
127.388250
 30
0.0
  0
SPLINE
  5
1d6
100
AcDbEntity
  8
Calque_1
 62
7
100
AcDbSpline
 70
8
 71
3
 72
8
 73
4
 74
0
 40
0
 40
0
 40
0
 40
0
 40
1
 40
1
 40
1
 40
1
 10
95.532839
 20
127.388250
 30
0.0
 10
95.068737
 20
127.120301
 30
0.0
 10
94.782839
 20
126.625110
 30
0.0
 10
94.782839
 20
126.089212
 30
0.0
  0
SPLINE
  5
1d7
100
AcDbEntity
  8
Calque_1
 62
7
100
AcDbSpline
 70
8
 71
3
 72
8
 73
4
 74
0
 40
0
 40
0
 40
0
 40
0
 40
1
 40
1
 40
1
 40
1
 10
94.782839
 20
126.089212
 30
0.0
 10
94.782839
 20
125.553314
 30
0.0
 10
95.068737
 20
125.058123
 30
0.0
 10
95.532839
 20
124.790174
 30
0.0
  0
SPLINE
  5
1d8
100
AcDbEntity
  8
Calque_1
 62
7
100
AcDbSpline
 70
8
 71
3
 72
8
 73
4
 74
0
 40
0
 40
0
 40
0
 40
0
 40
1
 40
1
 40
1
 40
1
 10
95.532839
 20
124.790174
 30
0.0
 10
95.996940
 20
124.522225
 30
0.0
 10
96.568737
 20
124.522225
 30
0.0
 10
97.032839
 20
124.790174
 30
0.0
  0
SPLINE
  5
1d9
100
AcDbEntity
  8
Calque_1
 62
7
100
AcDbSpline
 70
8
 71
3
 72
8
 73
4
 74
0
 40
0
 40
0
 40
0
 40
0
 40
1
 40
1
 40
1
 40
1
 10
97.032839
 20
124.790174
 30
0.0
 10
97.496940
 20
125.058123
 30
0.0
 10
97.782839
 20
125.553314
 30
0.0
 10
97.782839
 20
126.089212
 30
0.0
  0
LINE
  5
1da
100
AcDbEntity
  8
Calque_1
 62
7
100
AcDbLine
 10
97.782839
 20
126.089212
 30
0.0
 11
97.782839
 21
126.089212
 31
0.0
  0
LINE
  5
1db
100
AcDbEntity
  8
Calque_1
 62
7
100
AcDbLine
 10
88.923923
 20
86.912380
 30
0.0
 11
88.923923
 21
105.580925
 31
0.0
  0
LINE
  5
1dc
100
AcDbEntity
  8
Calque_1
 62
7
100
AcDbLine
 10
88.923923
 20
105.580925
 30
0.0
 11
158.923923
 21
101.912380
 31
0.0
  0
LINE
  5
1dd
100
AcDbEntity
  8
Calque_1
 62
7
100
AcDbLine
 10
158.923923
 20
101.912380
 30
0.0
 11
128.923923
 21
101.912380
 31
0.0
  0
LINE
  5
1de
100
AcDbEntity
  8
Calque_1
 62
7
100
AcDbLine
 10
128.923923
 20
101.912380
 30
0.0
 11
128.923923
 21
96.912380
 31
0.0
  0
LINE
  5
1df
100
AcDbEntity
  8
Calque_1
 62
7
100
AcDbLine
 10
128.923923
 20
96.912380
 30
0.0
 11
108.923923
 21
96.912380
 31
0.0
  0
LINE
  5
1e0
100
AcDbEntity
  8
Calque_1
 62
7
100
AcDbLine
 10
108.923923
 20
96.912380
 30
0.0
 11
108.923923
 21
101.912380
 31
0.0
  0
LINE
  5
1e1
100
AcDbEntity
  8
Calque_1
 62
7
100
AcDbLine
 10
108.923923
 20
101.912380
 30
0.0
 11
98.923923
 21
101.912380
 31
0.0
  0
LINE
  5
1e2
100
AcDbEntity
  8
Calque_1
 62
7
100
AcDbLine
 10
98.923923
 20
101.912380
 30
0.0
 11
98.923923
 21
86.912380
 31
0.0
  0
LINE
  5
1e3
100
AcDbEntity
  8
Calque_1
 62
7
100
AcDbLine
 10
98.923923
 20
86.912380
 30
0.0
 11
88.923923
 21
86.912380
 31
0.0
  0
ENDSEC
  0
SECTION
  2
OBJECTS
  0
DICTIONARY
  5
C
330
0
100
AcDbDictionary
  3
ACAD_GROUP
350
D
  3
ACAD_MLINESTYLE
350
17
  0
DICTIONARY
  5
D
330
C
100
AcDbDictionary
  0
DICTIONARY
  5
1A
330
C
100
AcDbDictionary
  0
DICTIONARY
  5
17
330
C
100
AcDbDictionary
  3
STANDARD
350
18
  0
DICTIONARY
  5
19
330
C
100
AcDbDictionary
  0
ENDSEC
  0
EOF
