  0
SECTION
  2
HEADER
  9
$ACADVER
  1
AC1014
  9
$HANDSEED
  5
FFFF
  9
$MEASUREMENT
 70
     1
  0
ENDSEC
  0
SECTION
  2
TABLES
  0
TABLE
  2
VPORT
  5
8
330
0
100
AcDbSymbolTable
 70
     4
  0
VPORT
  5
2E
330
8
100
AcDbSymbolTableRecord
100
AcDbViewportTableRecord
  2
*ACTIVE
 70
     0
 10
0.0
 20
0.0
 11
1.0
 21
1.0
 12
210.0
 22
148.5
 13
0.0
 23
0.0
 14
10.0
 24
10.0
 15
10.0
 25
10.0
 16
0.0
 26
0.0
 36
1.0
 17
0.0
 27
0.0
 37
0.0
 40
341.0
 41
1.24
 42
50.0
 43
0.0
 44
0.0
 50
0.0
 51
0.0
 71
     0
 72
   100
 73
     1
 74
     3
 75
     0
 76
     0
 77
     0
 78
     0
  0
ENDTAB
  0
TABLE
  2
LTYPE
  5
5
330
0
100
AcDbSymbolTable
 70
     1
  0
LTYPE
  5
14
330
5
100
AcDbSymbolTableRecord
100
AcDbLinetypeTableRecord
  2
BYBLOCK
 70
     0
  3

 72
    65
 73
     0
 40
0.0
  0
LTYPE
  5
15
330
5
100
AcDbSymbolTableRecord
100
AcDbLinetypeTableRecord
  2
BYLAYER
 70
     0
  3

 72
    65
 73
     0
 40
0.0
  0
LTYPE
  5
16
330
5
100
AcDbSymbolTableRecord
100
AcDbLinetypeTableRecord
  2
CONTINUOUS
 70
     0
  3
Solid line
 72
    65
 73
     0
 40
0.0
  0
ENDTAB
  0
TABLE
  2
LAYER
  5
2
100
AcDbSymbolTable
 70
2
  0
LAYER
  5
50
100
AcDbSymbolTableRecord
100
AcDbLayerTableRecord
  2
0
 70
0
  6
CONTINUOUS
  0
LAYER
  5
51
100
AcDbSymbolTableRecord
100
AcDbLayerTableRecord
  2
Calque_1
 70
0
  6
CONTINUOUS
  0
ENDTAB
  0
TABLE
  2
STYLE
  5
3
330
0
100
AcDbSymbolTable
 70
     1
  0
STYLE
  5
11
330
3
100
AcDbSymbolTableRecord
100
AcDbTextStyleTableRecord
  2
STANDARD
 70
     0
 40
0.0
 41
1.0
 50
0.0
 71
     0
 42
2.5
  3
txt
  4

  0
ENDTAB
  0
TABLE
  2
VIEW
  5
6
330
0
100
AcDbSymbolTable
 70
     0
  0
ENDTAB
  0
TABLE
  2
UCS
  5
7
330
0
100
AcDbSymbolTable
 70
     0
  0
ENDTAB
  0
TABLE
  2
APPID
  5
9
330
0
100
AcDbSymbolTable
 70
     2
  0
APPID
  5
12
330
9
100
AcDbSymbolTableRecord
100
AcDbRegAppTableRecord
  2
ACAD
 70
     0
  0
ENDTAB
  0
TABLE
  2
DIMSTYLE
  5
A
330
0
100
AcDbSymbolTable
 70
     1
  0
DIMSTYLE
105
27
330
A
100
AcDbSymbolTableRecord
100
AcDbDimStyleTableRecord
  2
ISO-25
 70
     0
  3

  4

  5

  6

  7

 40
1.0
 41
2.5
 42
0.625
 43
3.75
 44
1.25
 45
0.0
 46
0.0
 47
0.0
 48
0.0
140
2.5
141
2.5
142
0.0
143
0.03937007874016
144
1.0
145
0.0
146
1.0
147
0.625
 71
     0
 72
     0
 73
     0
 74
     0
 75
     0
 76
     0
 77
     1
 78
     8
170
     0
171
     3
172
     1
173
     0
174
     0
175
     0
176
     0
177
     0
178
     0
270
     2
271
     2
272
     2
273
     2
274
     3
340
11
275
     0
280
     0
281
     0
282
     0
283
     0
284
     8
285
     0
286
     0
287
     3
288
     0
  0
ENDTAB
  0
TABLE
  2
BLOCK_RECORD
  5
1
330
0
100
AcDbSymbolTable
 70
     1
  0
BLOCK_RECORD
  5
1F
330
1
100
AcDbSymbolTableRecord
100
AcDbBlockTableRecord
  2
*MODEL_SPACE
  0
BLOCK_RECORD
  5
1B
330
1
100
AcDbSymbolTableRecord
100
AcDbBlockTableRecord
  2
*PAPER_SPACE
  0
ENDTAB
  0
ENDSEC
  0
SECTION
  2
BLOCKS
  0
BLOCK
  5
20
330
1F
100
AcDbEntity
  8
0
100
AcDbBlockBegin
  2
*MODEL_SPACE
 70
     0
 10
0.0
 20
0.0
 30
0.0
  3
*MODEL_SPACE
  1

  0
ENDBLK
  5
21
330
1F
100
AcDbEntity
  8
0
100
AcDbBlockEnd
  0
BLOCK
  5
1C
330
1B
100
AcDbEntity
 67
     1
  8
0
100
AcDbBlockBegin
  2
*PAPER_SPACE
  1

  0
ENDBLK
  5
1D
330
1B
100
AcDbEntity
 67
     1
  8
0
100
AcDbBlockEnd
  0
ENDSEC
  0
SECTION
  2
ENTITIES
  0
LINE
  5
100
100
AcDbEntity
  8
Calque_1
 62
7
100
AcDbLine
 10
74.329343
 20
253.013978
 30
0.0
 11
74.353243
 21
288.013968
 31
0.0
  0
LINE
  5
101
100
AcDbEntity
  8
Calque_1
 62
7
100
AcDbLine
 10
74.353243
 20
288.013968
 30
0.0
 11
54.353247
 21
288.027568
 31
0.0
  0
LINE
  5
102
100
AcDbEntity
  8
Calque_1
 62
7
100
AcDbLine
 10
54.353247
 20
288.027568
 30
0.0
 11
54.329351
 21
253.027578
 31
0.0
  0
LINE
  5
103
100
AcDbEntity
  8
Calque_1
 62
7
100
AcDbLine
 10
54.329351
 20
253.027578
 30
0.0
 11
49.329352
 21
253.030578
 31
0.0
  0
LINE
  5
104
100
AcDbEntity
  8
Calque_1
 62
7
100
AcDbLine
 10
49.329352
 20
253.030578
 30
0.0
 11
49.325952
 21
248.030578
 31
0.0
  0
LINE
  5
105
100
AcDbEntity
  8
Calque_1
 62
7
100
AcDbLine
 10
49.325952
 20
248.030578
 30
0.0
 11
19.325959
 21
248.051078
 31
0.0
  0
LINE
  5
106
100
AcDbEntity
  8
Calque_1
 62
7
100
AcDbLine
 10
19.325959
 20
248.051078
 30
0.0
 11
19.329359
 21
253.051078
 31
0.0
  0
LINE
  5
107
100
AcDbEntity
  8
Calque_1
 62
7
100
AcDbLine
 10
19.329359
 20
253.051078
 30
0.0
 11
4.329364
 21
253.061278
 31
0.0
  0
LINE
  5
108
100
AcDbEntity
  8
Calque_1
 62
7
100
AcDbLine
 10
4.329364
 20
253.061278
 30
0.0
 11
4.158678
 21
3.061338
 31
0.0
  0
LINE
  5
109
100
AcDbEntity
  8
Calque_1
 62
7
100
AcDbLine
 10
4.158678
 20
3.061338
 30
0.0
 11
124.158648
 21
2.979408
 31
0.0
  0
LINE
  5
10a
100
AcDbEntity
  8
Calque_1
 62
7
100
AcDbLine
 10
124.158648
 20
2.979408
 30
0.0
 11
124.329334
 21
252.979347
 31
0.0
  0
LINE
  5
10b
100
AcDbEntity
  8
Calque_1
 62
7
100
AcDbLine
 10
124.329334
 20
252.979347
 30
0.0
 11
109.329338
 21
252.989547
 31
0.0
  0
LINE
  5
10c
100
AcDbEntity
  8
Calque_1
 62
7
100
AcDbLine
 10
109.329338
 20
252.989547
 30
0.0
 11
109.325938
 21
247.989547
 31
0.0
  0
LINE
  5
10d
100
AcDbEntity
  8
Calque_1
 62
7
100
AcDbLine
 10
109.325938
 20
247.989547
 30
0.0
 11
79.325945
 21
248.010047
 31
0.0
  0
LINE
  5
10e
100
AcDbEntity
  8
Calque_1
 62
7
100
AcDbLine
 10
79.325945
 20
248.010047
 30
0.0
 11
79.329345
 21
253.010047
 31
0.0
  0
LINE
  5
10f
100
AcDbEntity
  8
Calque_1
 62
7
100
AcDbLine
 10
79.329345
 20
253.010047
 30
0.0
 11
74.329347
 21
253.013047
 31
0.0
  0
SPLINE
  5
110
100
AcDbEntity
  8
Calque_1
 62
7
100
AcDbSpline
 70
8
 71
3
 72
8
 73
4
 74
0
 40
0
 40
0
 40
0
 40
0
 40
1
 40
1
 40
1
 40
1
 10
112.781542
 20
182.987709
 30
0.0
 10
112.781380
 20
182.159558
 30
0.0
 10
113.452391
 20
181.487968
 30
0.0
 10
114.280541
 20
181.487416
 30
0.0
  0
SPLINE
  5
111
100
AcDbEntity
  8
Calque_1
 62
7
100
AcDbSpline
 70
8
 71
3
 72
8
 73
4
 74
0
 40
0
 40
0
 40
0
 40
0
 40
1
 40
1
 40
1
 40
1
 10
114.280541
 20
181.487416
 30
0.0
 10
115.108692
 20
181.486864
 30
0.0
 10
115.780598
 20
182.157558
 30
0.0
 10
115.781540
 20
182.985709
 30
0.0
  0
SPLINE
  5
112
100
AcDbEntity
  8
Calque_1
 62
7
100
AcDbSpline
 70
8
 71
3
 72
8
 73
4
 74
0
 40
0
 40
0
 40
0
 40
0
 40
1
 40
1
 40
1
 40
1
 10
115.781540
 20
182.985709
 30
0.0
 10
115.781540
 20
182.985709
 30
0.0
 10
115.795190
 20
202.985708
 30
0.0
 10
115.795190
 20
202.985708
 30
0.0
  0
SPLINE
  5
113
100
AcDbEntity
  8
Calque_1
 62
7
100
AcDbSpline
 70
8
 71
3
 72
8
 73
4
 74
0
 40
0
 40
0
 40
0
 40
0
 40
1
 40
1
 40
1
 40
1
 10
115.795190
 20
202.985708
 30
0.0
 10
115.795547
 20
203.521607
 30
0.0
 10
115.509979
 20
204.016988
 30
0.0
 10
115.046056
 20
204.285246
 30
0.0
  0
SPLINE
  5
114
100
AcDbEntity
  8
Calque_1
 62
7
100
AcDbSpline
 70
8
 71
3
 72
8
 73
4
 74
0
 40
0
 40
0
 40
0
 40
0
 40
1
 40
1
 40
1
 40
1
 10
115.046056
 20
204.285246
 30
0.0
 10
114.582133
 20
204.553505
 30
0.0
 10
114.010337
 20
204.553886
 30
0.0
 10
113.546057
 20
204.286246
 30
0.0
  0
SPLINE
  5
115
100
AcDbEntity
  8
Calque_1
 62
7
100
AcDbSpline
 70
8
 71
3
 72
8
 73
4
 74
0
 40
0
 40
0
 40
0
 40
0
 40
1
 40
1
 40
1
 40
1
 10
113.546057
 20
204.286246
 30
0.0
 10
113.081777
 20
204.018606
 30
0.0
 10
112.795548
 20
203.523607
 30
0.0
 10
112.795191
 20
202.987708
 30
0.0
  0
LINE
  5
116
100
AcDbEntity
  8
Calque_1
 62
7
100
AcDbLine
 10
112.795191
 20
202.987708
 30
0.0
 11
112.781541
 21
182.987719
 31
0.0
  0
SPLINE
  5
117
100
AcDbEntity
  8
Calque_1
 62
7
100
AcDbSpline
 70
8
 71
3
 72
8
 73
4
 74
0
 40
0
 40
0
 40
0
 40
0
 40
1
 40
1
 40
1
 40
1
 10
92.781546
 20
183.001359
 30
0.0
 10
92.781189
 20
182.465460
 30
0.0
 10
93.066757
 20
181.970079
 30
0.0
 10
93.530680
 20
181.701821
 30
0.0
  0
SPLINE
  5
118
100
AcDbEntity
  8
Calque_1
 62
7
100
AcDbSpline
 70
8
 71
3
 72
8
 73
4
 74
0
 40
0
 40
0
 40
0
 40
0
 40
1
 40
1
 40
1
 40
1
 10
93.530680
 20
181.701821
 30
0.0
 10
93.994603
 20
181.433562
 30
0.0
 10
94.566399
 20
181.433181
 30
0.0
 10
95.030680
 20
181.700821
 30
0.0
  0
SPLINE
  5
119
100
AcDbEntity
  8
Calque_1
 62
7
100
AcDbSpline
 70
8
 71
3
 72
8
 73
4
 74
0
 40
0
 40
0
 40
0
 40
0
 40
1
 40
1
 40
1
 40
1
 10
95.030680
 20
181.700821
 30
0.0
 10
95.494960
 20
181.968460
 30
0.0
 10
95.781188
 20
182.463460
 30
0.0
 10
95.781545
 20
182.999359
 30
0.0
  0
SPLINE
  5
11a
100
AcDbEntity
  8
Calque_1
 62
7
100
AcDbSpline
 70
8
 71
3
 72
8
 73
4
 74
0
 40
0
 40
0
 40
0
 40
0
 40
1
 40
1
 40
1
 40
1
 10
95.781545
 20
182.999359
 30
0.0
 10
95.781545
 20
182.999359
 30
0.0
 10
95.795196
 20
202.999358
 30
0.0
 10
95.795196
 20
202.999358
 30
0.0
  0
SPLINE
  5
11b
100
AcDbEntity
  8
Calque_1
 62
7
100
AcDbSpline
 70
8
 71
3
 72
8
 73
4
 74
0
 40
0
 40
0
 40
0
 40
0
 40
1
 40
1
 40
1
 40
1
 10
95.795196
 20
202.999358
 30
0.0
 10
95.795806
 20
203.535425
 30
0.0
 10
95.510293
 20
204.031070
 30
0.0
 10
95.046267
 20
204.299485
 30
0.0
  0
SPLINE
  5
11c
100
AcDbEntity
  8
Calque_1
 62
7
100
AcDbSpline
 70
8
 71
3
 72
8
 73
4
 74
0
 40
0
 40
0
 40
0
 40
0
 40
1
 40
1
 40
1
 40
1
 10
95.046267
 20
204.299485
 30
0.0
 10
94.582240
 20
204.567901
 30
0.0
 10
94.010243
 20
204.568282
 30
0.0
 10
93.545859
 20
204.300486
 30
0.0
  0
SPLINE
  5
11d
100
AcDbEntity
  8
Calque_1
 62
7
100
AcDbSpline
 70
8
 71
3
 72
8
 73
4
 74
0
 40
0
 40
0
 40
0
 40
0
 40
1
 40
1
 40
1
 40
1
 10
93.545859
 20
204.300486
 30
0.0
 10
93.081475
 20
204.032689
 30
0.0
 10
92.795301
 20
203.537425
 30
0.0
 10
92.795197
 20
203.001358
 30
0.0
  0
LINE
  5
11e
100
AcDbEntity
  8
Calque_1
 62
7
100
AcDbLine
 10
92.795197
 20
203.001358
 30
0.0
 11
92.781547
 21
183.001359
 31
0.0
  0
SPLINE
  5
11f
100
AcDbEntity
  8
Calque_1
 62
7
100
AcDbSpline
 70
8
 71
3
 72
8
 73
4
 74
0
 40
0
 40
0
 40
0
 40
0
 40
1
 40
1
 40
1
 40
1
 10
112.740577
 20
122.987721
 30
0.0
 10
112.740415
 20
122.159570
 30
0.0
 10
113.411426
 20
121.487981
 30
0.0
 10
114.239576
 20
121.487429
 30
0.0
  0
SPLINE
  5
120
100
AcDbEntity
  8
Calque_1
 62
7
100
AcDbSpline
 70
8
 71
3
 72
8
 73
4
 74
0
 40
0
 40
0
 40
0
 40
0
 40
1
 40
1
 40
1
 40
1
 10
114.239576
 20
121.487429
 30
0.0
 10
115.067727
 20
121.486877
 30
0.0
 10
115.739633
 20
122.157571
 30
0.0
 10
115.740575
 20
122.985721
 30
0.0
  0
SPLINE
  5
121
100
AcDbEntity
  8
Calque_1
 62
7
100
AcDbSpline
 70
8
 71
3
 72
8
 73
4
 74
0
 40
0
 40
0
 40
0
 40
0
 40
1
 40
1
 40
1
 40
1
 10
115.740575
 20
122.985721
 30
0.0
 10
115.740575
 20
122.985721
 30
0.0
 10
115.754225
 20
142.985717
 30
0.0
 10
115.754225
 20
142.985717
 30
0.0
  0
SPLINE
  5
122
100
AcDbEntity
  8
Calque_1
 62
7
100
AcDbSpline
 70
8
 71
3
 72
8
 73
4
 74
0
 40
0
 40
0
 40
0
 40
0
 40
1
 40
1
 40
1
 40
1
 10
115.754225
 20
142.985717
 30
0.0
 10
115.754387
 20
143.813868
 30
0.0
 10
115.083376
 20
144.485457
 30
0.0
 10
114.255226
 20
144.486009
 30
0.0
  0
SPLINE
  5
123
100
AcDbEntity
  8
Calque_1
 62
7
100
AcDbSpline
 70
8
 71
3
 72
8
 73
4
 74
0
 40
0
 40
0
 40
0
 40
0
 40
1
 40
1
 40
1
 40
1
 10
114.255226
 20
144.486009
 30
0.0
 10
113.427075
 20
144.486562
 30
0.0
 10
112.755169
 20
143.815867
 30
0.0
 10
112.754227
 20
142.987717
 30
0.0
  0
LINE
  5
124
100
AcDbEntity
  8
Calque_1
 62
7
100
AcDbLine
 10
112.754227
 20
142.987717
 30
0.0
 11
112.740577
 21
122.987719
 31
0.0
  0
SPLINE
  5
125
100
AcDbEntity
  8
Calque_1
 62
7
100
AcDbSpline
 70
8
 71
3
 72
8
 73
4
 74
0
 40
0
 40
0
 40
0
 40
0
 40
1
 40
1
 40
1
 40
1
 10
92.740582
 20
123.001376
 30
0.0
 10
92.739972
 20
122.465310
 30
0.0
 10
93.025484
 20
121.969665
 30
0.0
 10
93.489511
 20
121.701249
 30
0.0
  0
SPLINE
  5
126
100
AcDbEntity
  8
Calque_1
 62
7
100
AcDbSpline
 70
8
 71
3
 72
8
 73
4
 74
0
 40
0
 40
0
 40
0
 40
0
 40
1
 40
1
 40
1
 40
1
 10
93.489511
 20
121.701249
 30
0.0
 10
93.953537
 20
121.432833
 30
0.0
 10
94.525535
 20
121.432452
 30
0.0
 10
94.989919
 20
121.700249
 30
0.0
  0
SPLINE
  5
127
100
AcDbEntity
  8
Calque_1
 62
7
100
AcDbSpline
 70
8
 71
3
 72
8
 73
4
 74
0
 40
0
 40
0
 40
0
 40
0
 40
1
 40
1
 40
1
 40
1
 10
94.989919
 20
121.700249
 30
0.0
 10
95.454303
 20
121.968046
 30
0.0
 10
95.740476
 20
122.463309
 30
0.0
 10
95.740581
 20
122.999376
 30
0.0
  0
SPLINE
  5
128
100
AcDbEntity
  8
Calque_1
 62
7
100
AcDbSpline
 70
8
 71
3
 72
8
 73
4
 74
0
 40
0
 40
0
 40
0
 40
0
 40
1
 40
1
 40
1
 40
1
 10
95.740581
 20
122.999376
 30
0.0
 10
95.740581
 20
122.999376
 30
0.0
 10
95.754231
 20
142.999367
 30
0.0
 10
95.754231
 20
142.999367
 30
0.0
  0
SPLINE
  5
129
100
AcDbEntity
  8
Calque_1
 62
7
100
AcDbSpline
 70
8
 71
3
 72
8
 73
4
 74
0
 40
0
 40
0
 40
0
 40
0
 40
1
 40
1
 40
1
 40
1
 10
95.754231
 20
142.999367
 30
0.0
 10
95.754392
 20
143.827518
 30
0.0
 10
95.083382
 20
144.499107
 30
0.0
 10
94.255231
 20
144.499659
 30
0.0
  0
SPLINE
  5
12a
100
AcDbEntity
  8
Calque_1
 62
7
100
AcDbSpline
 70
8
 71
3
 72
8
 73
4
 74
0
 40
0
 40
0
 40
0
 40
0
 40
1
 40
1
 40
1
 40
1
 10
94.255231
 20
144.499659
 30
0.0
 10
93.427080
 20
144.500212
 30
0.0
 10
92.755174
 20
143.829517
 30
0.0
 10
92.754232
 20
143.001367
 30
0.0
  0
LINE
  5
12b
100
AcDbEntity
  8
Calque_1
 62
7
100
AcDbLine
 10
92.754232
 20
143.001367
 30
0.0
 11
92.740582
 21
123.001374
 31
0.0
  0
SPLINE
  5
12c
100
AcDbEntity
  8
Calque_1
 62
7
100
AcDbSpline
 70
8
 71
3
 72
8
 73
4
 74
0
 40
0
 40
0
 40
0
 40
0
 40
1
 40
1
 40
1
 40
1
 10
32.781560
 20
183.042329
 30
0.0
 10
32.780950
 20
182.506262
 30
0.0
 10
33.066463
 20
182.010617
 30
0.0
 10
33.530489
 20
181.742202
 30
0.0
  0
SPLINE
  5
12d
100
AcDbEntity
  8
Calque_1
 62
7
100
AcDbSpline
 70
8
 71
3
 72
8
 73
4
 74
0
 40
0
 40
0
 40
0
 40
0
 40
1
 40
1
 40
1
 40
1
 10
33.530489
 20
181.742202
 30
0.0
 10
33.994516
 20
181.473786
 30
0.0
 10
34.566513
 20
181.473405
 30
0.0
 10
35.030897
 20
181.741201
 30
0.0
  0
SPLINE
  5
12e
100
AcDbEntity
  8
Calque_1
 62
7
100
AcDbSpline
 70
8
 71
3
 72
8
 73
4
 74
0
 40
0
 40
0
 40
0
 40
0
 40
1
 40
1
 40
1
 40
1
 10
35.030897
 20
181.741201
 30
0.0
 10
35.495281
 20
182.008998
 30
0.0
 10
35.781455
 20
182.504262
 30
0.0
 10
35.781559
 20
183.040329
 30
0.0
  0
SPLINE
  5
12f
100
AcDbEntity
  8
Calque_1
 62
7
100
AcDbSpline
 70
8
 71
3
 72
8
 73
4
 74
0
 40
0
 40
0
 40
0
 40
0
 40
1
 40
1
 40
1
 40
1
 10
35.781559
 20
183.040329
 30
0.0
 10
35.781559
 20
183.040329
 30
0.0
 10
35.795209
 20
203.040318
 30
0.0
 10
35.795209
 20
203.040318
 30
0.0
  0
SPLINE
  5
130
100
AcDbEntity
  8
Calque_1
 62
7
100
AcDbSpline
 70
8
 71
3
 72
8
 73
4
 74
0
 40
0
 40
0
 40
0
 40
0
 40
1
 40
1
 40
1
 40
1
 10
35.795209
 20
203.040318
 30
0.0
 10
35.795371
 20
203.868469
 30
0.0
 10
35.124360
 20
204.540059
 30
0.0
 10
34.296209
 20
204.540611
 30
0.0
  0
SPLINE
  5
131
100
AcDbEntity
  8
Calque_1
 62
7
100
AcDbSpline
 70
8
 71
3
 72
8
 73
4
 74
0
 40
0
 40
0
 40
0
 40
0
 40
1
 40
1
 40
1
 40
1
 10
34.296209
 20
204.540611
 30
0.0
 10
33.468059
 20
204.541163
 30
0.0
 10
32.796153
 20
203.870469
 30
0.0
 10
32.795210
 20
203.042318
 30
0.0
  0
LINE
  5
132
100
AcDbEntity
  8
Calque_1
 62
7
100
AcDbLine
 10
32.795210
 20
203.042318
 30
0.0
 11
32.781560
 21
183.042329
 31
0.0
  0
SPLINE
  5
133
100
AcDbEntity
  8
Calque_1
 62
7
100
AcDbSpline
 70
8
 71
3
 72
8
 73
4
 74
0
 40
0
 40
0
 40
0
 40
0
 40
1
 40
1
 40
1
 40
1
 10
12.781566
 20
183.055979
 30
0.0
 10
12.781404
 20
182.227828
 30
0.0
 10
13.452415
 20
181.556238
 30
0.0
 10
14.280565
 20
181.555686
 30
0.0
  0
SPLINE
  5
134
100
AcDbEntity
  8
Calque_1
 62
7
100
AcDbSpline
 70
8
 71
3
 72
8
 73
4
 74
0
 40
0
 40
0
 40
0
 40
0
 40
1
 40
1
 40
1
 40
1
 10
14.280565
 20
181.555686
 30
0.0
 10
15.108716
 20
181.555134
 30
0.0
 10
15.780622
 20
182.225828
 30
0.0
 10
15.781564
 20
183.053979
 30
0.0
  0
LINE
  5
135
100
AcDbEntity
  8
Calque_1
 62
7
100
AcDbLine
 10
15.781564
 20
183.053979
 30
0.0
 11
15.795214
 21
203.053978
 31
0.0
  0
SPLINE
  5
136
100
AcDbEntity
  8
Calque_1
 62
7
100
AcDbSpline
 70
8
 71
3
 72
8
 73
4
 74
0
 40
0
 40
0
 40
0
 40
0
 40
1
 40
1
 40
1
 40
1
 10
15.795214
 20
203.053978
 30
0.0
 10
15.795825
 20
203.590045
 30
0.0
 10
15.510312
 20
204.085690
 30
0.0
 10
15.046285
 20
204.354105
 30
0.0
  0
SPLINE
  5
137
100
AcDbEntity
  8
Calque_1
 62
7
100
AcDbSpline
 70
8
 71
3
 72
8
 73
4
 74
0
 40
0
 40
0
 40
0
 40
0
 40
1
 40
1
 40
1
 40
1
 10
15.046285
 20
204.354105
 30
0.0
 10
14.582259
 20
204.622521
 30
0.0
 10
14.010261
 20
204.622902
 30
0.0
 10
13.545877
 20
204.355106
 30
0.0
  0
SPLINE
  5
138
100
AcDbEntity
  8
Calque_1
 62
7
100
AcDbSpline
 70
8
 71
3
 72
8
 73
4
 74
0
 40
0
 40
0
 40
0
 40
0
 40
1
 40
1
 40
1
 40
1
 10
13.545877
 20
204.355106
 30
0.0
 10
13.081493
 20
204.087309
 30
0.0
 10
12.795320
 20
203.592045
 30
0.0
 10
12.795216
 20
203.055978
 30
0.0
  0
LINE
  5
139
100
AcDbEntity
  8
Calque_1
 62
7
100
AcDbLine
 10
12.795216
 20
203.055978
 30
0.0
 11
12.781566
 21
183.055979
 31
0.0
  0
SPLINE
  5
13a
100
AcDbEntity
  8
Calque_1
 62
7
100
AcDbSpline
 70
8
 71
3
 72
8
 73
4
 74
0
 40
0
 40
0
 40
0
 40
0
 40
1
 40
1
 40
1
 40
1
 10
32.740596
 20
123.042341
 30
0.0
 10
32.739986
 20
122.506275
 30
0.0
 10
33.025499
 20
122.010630
 30
0.0
 10
33.489525
 20
121.742214
 30
0.0
  0
SPLINE
  5
13b
100
AcDbEntity
  8
Calque_1
 62
7
100
AcDbSpline
 70
8
 71
3
 72
8
 73
4
 74
0
 40
0
 40
0
 40
0
 40
0
 40
1
 40
1
 40
1
 40
1
 10
33.489525
 20
121.742214
 30
0.0
 10
33.953552
 20
121.473798
 30
0.0
 10
34.525549
 20
121.473417
 30
0.0
 10
34.989933
 20
121.741214
 30
0.0
  0
SPLINE
  5
13c
100
AcDbEntity
  8
Calque_1
 62
7
100
AcDbSpline
 70
8
 71
3
 72
8
 73
4
 74
0
 40
0
 40
0
 40
0
 40
0
 40
1
 40
1
 40
1
 40
1
 10
34.989933
 20
121.741214
 30
0.0
 10
35.454317
 20
122.009011
 30
0.0
 10
35.740491
 20
122.504274
 30
0.0
 10
35.740595
 20
123.040341
 30
0.0
  0
SPLINE
  5
13d
100
AcDbEntity
  8
Calque_1
 62
7
100
AcDbSpline
 70
8
 71
3
 72
8
 73
4
 74
0
 40
0
 40
0
 40
0
 40
0
 40
1
 40
1
 40
1
 40
1
 10
35.740595
 20
123.040341
 30
0.0
 10
35.740595
 20
123.040341
 30
0.0
 10
35.754245
 20
143.040338
 30
0.0
 10
35.754245
 20
143.040338
 30
0.0
  0
SPLINE
  5
13e
100
AcDbEntity
  8
Calque_1
 62
7
100
AcDbSpline
 70
8
 71
3
 72
8
 73
4
 74
0
 40
0
 40
0
 40
0
 40
0
 40
1
 40
1
 40
1
 40
1
 10
35.754245
 20
143.040338
 30
0.0
 10
35.754602
 20
143.576236
 30
0.0
 10
35.469034
 20
144.071617
 30
0.0
 10
35.005111
 20
144.339876
 30
0.0
  0
SPLINE
  5
13f
100
AcDbEntity
  8
Calque_1
 62
7
100
AcDbSpline
 70
8
 71
3
 72
8
 73
4
 74
0
 40
0
 40
0
 40
0
 40
0
 40
1
 40
1
 40
1
 40
1
 10
35.005111
 20
144.339876
 30
0.0
 10
34.541188
 20
144.608134
 30
0.0
 10
33.969392
 20
144.608515
 30
0.0
 10
33.505112
 20
144.340876
 30
0.0
  0
SPLINE
  5
140
100
AcDbEntity
  8
Calque_1
 62
7
100
AcDbSpline
 70
8
 71
3
 72
8
 73
4
 74
0
 40
0
 40
0
 40
0
 40
0
 40
1
 40
1
 40
1
 40
1
 10
33.505112
 20
144.340876
 30
0.0
 10
33.040831
 20
144.073236
 30
0.0
 10
32.754603
 20
143.578236
 30
0.0
 10
32.754246
 20
143.042338
 30
0.0
  0
LINE
  5
141
100
AcDbEntity
  8
Calque_1
 62
7
100
AcDbLine
 10
32.754246
 20
143.042338
 30
0.0
 11
32.740595
 21
123.042340
 31
0.0
  0
SPLINE
  5
142
100
AcDbEntity
  8
Calque_1
 62
7
100
AcDbSpline
 70
8
 71
3
 72
8
 73
4
 74
0
 40
0
 40
0
 40
0
 40
0
 40
1
 40
1
 40
1
 40
1
 10
12.740601
 20
123.055995
 30
0.0
 10
12.740244
 20
122.520097
 30
0.0
 10
13.025812
 20
122.024716
 30
0.0
 10
13.489735
 20
121.756457
 30
0.0
  0
SPLINE
  5
143
100
AcDbEntity
  8
Calque_1
 62
7
100
AcDbSpline
 70
8
 71
3
 72
8
 73
4
 74
0
 40
0
 40
0
 40
0
 40
0
 40
1
 40
1
 40
1
 40
1
 10
13.489735
 20
121.756457
 30
0.0
 10
13.953658
 20
121.488199
 30
0.0
 10
14.525454
 20
121.487818
 30
0.0
 10
14.989734
 20
121.755457
 30
0.0
  0
SPLINE
  5
144
100
AcDbEntity
  8
Calque_1
 62
7
100
AcDbSpline
 70
8
 71
3
 72
8
 73
4
 74
0
 40
0
 40
0
 40
0
 40
0
 40
1
 40
1
 40
1
 40
1
 10
14.989734
 20
121.755457
 30
0.0
 10
15.454014
 20
122.023097
 30
0.0
 10
15.740243
 20
122.518097
 30
0.0
 10
15.740600
 20
123.053995
 30
0.0
  0
SPLINE
  5
145
100
AcDbEntity
  8
Calque_1
 62
7
100
AcDbSpline
 70
8
 71
3
 72
8
 73
4
 74
0
 40
0
 40
0
 40
0
 40
0
 40
1
 40
1
 40
1
 40
1
 10
15.740600
 20
123.053995
 30
0.0
 10
15.740600
 20
123.053995
 30
0.0
 10
15.754250
 20
143.053987
 30
0.0
 10
15.754250
 20
143.053987
 30
0.0
  0
SPLINE
  5
146
100
AcDbEntity
  8
Calque_1
 62
7
100
AcDbSpline
 70
8
 71
3
 72
8
 73
4
 74
0
 40
0
 40
0
 40
0
 40
0
 40
1
 40
1
 40
1
 40
1
 10
15.754250
 20
143.053987
 30
0.0
 10
15.754412
 20
143.882138
 30
0.0
 10
15.083401
 20
144.553727
 30
0.0
 10
14.255251
 20
144.554279
 30
0.0
  0
SPLINE
  5
147
100
AcDbEntity
  8
Calque_1
 62
7
100
AcDbSpline
 70
8
 71
3
 72
8
 73
4
 74
0
 40
0
 40
0
 40
0
 40
0
 40
1
 40
1
 40
1
 40
1
 10
14.255251
 20
144.554279
 30
0.0
 10
13.427100
 20
144.554832
 30
0.0
 10
12.755194
 20
143.884137
 30
0.0
 10
12.754252
 20
143.055987
 30
0.0
  0
LINE
  5
148
100
AcDbEntity
  8
Calque_1
 62
7
100
AcDbLine
 10
12.754252
 20
143.055987
 30
0.0
 11
12.740602
 21
123.055993
 31
0.0
  0
SPLINE
  5
149
100
AcDbEntity
  8
Calque_1
 62
7
100
AcDbSpline
 70
8
 71
3
 72
8
 73
4
 74
0
 40
0
 40
0
 40
0
 40
0
 40
1
 40
1
 40
1
 40
1
 10
61.288381
 20
193.022868
 30
0.0
 10
61.287524
 20
191.366189
 30
0.0
 10
62.629701
 20
190.022421
 30
0.0
 10
64.286381
 20
190.021316
 30
0.0
  0
SPLINE
  5
14a
100
AcDbEntity
  8
Calque_1
 62
7
100
AcDbSpline
 70
8
 71
3
 72
8
 73
4
 74
0
 40
0
 40
0
 40
0
 40
0
 40
1
 40
1
 40
1
 40
1
 10
64.286381
 20
190.021316
 30
0.0
 10
65.943060
 20
190.020212
 30
0.0
 10
67.287028
 20
191.362189
 30
0.0
 10
67.288380
 20
193.018868
 30
0.0
  0
SPLINE
  5
14b
100
AcDbEntity
  8
Calque_1
 62
7
100
AcDbSpline
 70
8
 71
3
 72
8
 73
4
 74
0
 40
0
 40
0
 40
0
 40
0
 40
1
 40
1
 40
1
 40
1
 10
67.288380
 20
193.018868
 30
0.0
 10
67.288380
 20
193.018868
 30
0.0
 10
67.305449
 20
218.018858
 30
0.0
 10
67.305449
 20
218.018858
 30
0.0
  0
SPLINE
  5
14c
100
AcDbEntity
  8
Calque_1
 62
7
100
AcDbSpline
 70
8
 71
3
 72
8
 73
4
 74
0
 40
0
 40
0
 40
0
 40
0
 40
1
 40
1
 40
1
 40
1
 10
67.305449
 20
218.018858
 30
0.0
 10
67.306306
 20
219.675538
 30
0.0
 10
65.964128
 20
221.019306
 30
0.0
 10
64.307449
 20
221.020410
 30
0.0
  0
SPLINE
  5
14d
100
AcDbEntity
  8
Calque_1
 62
7
100
AcDbSpline
 70
8
 71
3
 72
8
 73
4
 74
0
 40
0
 40
0
 40
0
 40
0
 40
1
 40
1
 40
1
 40
1
 10
64.307449
 20
221.020410
 30
0.0
 10
62.650770
 20
221.021515
 30
0.0
 10
61.306801
 20
219.679537
 30
0.0
 10
61.305450
 20
218.022858
 30
0.0
  0
LINE
  5
14e
100
AcDbEntity
  8
Calque_1
 62
7
100
AcDbLine
 10
61.305450
 20
218.022858
 30
0.0
 11
61.288381
 21
193.022868
 31
0.0
  0
SPLINE
  5
14f
100
AcDbEntity
  8
Calque_1
 62
7
100
AcDbSpline
 70
8
 71
3
 72
8
 73
4
 74
0
 40
0
 40
0
 40
0
 40
0
 40
1
 40
1
 40
1
 40
1
 10
61.206452
 20
73.022895
 30
0.0
 10
61.205320
 20
71.366041
 30
0.0
 10
62.547547
 20
70.021978
 30
0.0
 10
64.204401
 20
70.020845
 30
0.0
  0
SPLINE
  5
150
100
AcDbEntity
  8
Calque_1
 62
7
100
AcDbSpline
 70
8
 71
3
 72
8
 73
4
 74
0
 40
0
 40
0
 40
0
 40
0
 40
1
 40
1
 40
1
 40
1
 10
64.204401
 20
70.020845
 30
0.0
 10
65.861255
 20
70.019713
 30
0.0
 10
67.205318
 20
71.361941
 30
0.0
 10
67.206450
 20
73.018795
 30
0.0
  0
SPLINE
  5
151
100
AcDbEntity
  8
Calque_1
 62
7
100
AcDbSpline
 70
8
 71
3
 72
8
 73
4
 74
0
 40
0
 40
0
 40
0
 40
0
 40
1
 40
1
 40
1
 40
1
 10
67.206450
 20
73.018795
 30
0.0
 10
67.206450
 20
73.018795
 30
0.0
 10
67.223519
 20
98.018788
 30
0.0
 10
67.223519
 20
98.018788
 30
0.0
  0
SPLINE
  5
152
100
AcDbEntity
  8
Calque_1
 62
7
100
AcDbSpline
 70
8
 71
3
 72
8
 73
4
 74
0
 40
0
 40
0
 40
0
 40
0
 40
1
 40
1
 40
1
 40
1
 10
67.223519
 20
98.018788
 30
0.0
 10
67.224252
 20
99.090585
 30
0.0
 10
66.653132
 20
100.081356
 30
0.0
 10
65.725295
 20
100.617889
 30
0.0
  0
SPLINE
  5
153
100
AcDbEntity
  8
Calque_1
 62
7
100
AcDbSpline
 70
8
 71
3
 72
8
 73
4
 74
0
 40
0
 40
0
 40
0
 40
0
 40
1
 40
1
 40
1
 40
1
 10
65.725295
 20
100.617889
 30
0.0
 10
64.797458
 20
101.154422
 30
0.0
 10
63.653865
 20
101.155203
 30
0.0
 10
62.725296
 20
100.619939
 30
0.0
  0
SPLINE
  5
154
100
AcDbEntity
  8
Calque_1
 62
7
100
AcDbSpline
 70
8
 71
3
 72
8
 73
4
 74
0
 40
0
 40
0
 40
0
 40
0
 40
1
 40
1
 40
1
 40
1
 10
62.725296
 20
100.619939
 30
0.0
 10
61.796727
 20
100.084675
 30
0.0
 10
61.224253
 20
99.094685
 30
0.0
 10
61.223521
 20
98.022888
 30
0.0
  0
LINE
  5
155
100
AcDbEntity
  8
Calque_1
 62
7
100
AcDbLine
 10
61.223521
 20
98.022888
 30
0.0
 11
61.206452
 21
73.022895
 31
0.0
  0
SPLINE
  5
156
100
AcDbEntity
  8
Calque_1
 62
7
100
AcDbSpline
 70
8
 71
3
 72
8
 73
4
 74
0
 40
0
 40
0
 40
0
 40
0
 40
1
 40
1
 40
1
 40
1
 10
62.832759
 20
258.021828
 30
0.0
 10
62.832330
 20
257.193488
 30
0.0
 10
63.503419
 20
256.521604
 30
0.0
 10
64.331759
 20
256.521052
 30
0.0
  0
SPLINE
  5
157
100
AcDbEntity
  8
Calque_1
 62
7
100
AcDbSpline
 70
8
 71
3
 72
8
 73
4
 74
0
 40
0
 40
0
 40
0
 40
0
 40
1
 40
1
 40
1
 40
1
 10
64.331759
 20
256.521052
 30
0.0
 10
65.160098
 20
256.520500
 30
0.0
 10
65.832082
 20
257.191488
 30
0.0
 10
65.832758
 20
258.019828
 30
0.0
  0
SPLINE
  5
158
100
AcDbEntity
  8
Calque_1
 62
7
100
AcDbSpline
 70
8
 71
3
 72
8
 73
4
 74
0
 40
0
 40
0
 40
0
 40
0
 40
1
 40
1
 40
1
 40
1
 10
65.832758
 20
258.019828
 30
0.0
 10
65.832758
 20
258.019828
 30
0.0
 10
65.849827
 20
283.019818
 30
0.0
 10
65.849827
 20
283.019818
 30
0.0
  0
SPLINE
  5
159
100
AcDbEntity
  8
Calque_1
 62
7
100
AcDbSpline
 70
8
 71
3
 72
8
 73
4
 74
0
 40
0
 40
0
 40
0
 40
0
 40
1
 40
1
 40
1
 40
1
 10
65.849827
 20
283.019818
 30
0.0
 10
65.850256
 20
283.848157
 30
0.0
 10
65.179167
 20
284.520041
 30
0.0
 10
64.350827
 20
284.520594
 30
0.0
  0
SPLINE
  5
15a
100
AcDbEntity
  8
Calque_1
 62
7
100
AcDbSpline
 70
8
 71
3
 72
8
 73
4
 74
0
 40
0
 40
0
 40
0
 40
0
 40
1
 40
1
 40
1
 40
1
 10
64.350827
 20
284.520594
 30
0.0
 10
63.522488
 20
284.521146
 30
0.0
 10
62.850504
 20
283.850157
 30
0.0
 10
62.849828
 20
283.021818
 30
0.0
  0
LINE
  5
15b
100
AcDbEntity
  8
Calque_1
 62
7
100
AcDbLine
 10
62.849828
 20
283.021818
 30
0.0
 11
62.832759
 21
258.021828
 31
0.0
  0
SPLINE
  5
15c
100
AcDbEntity
  8
Calque_1
 62
7
100
AcDbSpline
 70
8
 71
3
 72
8
 73
4
 74
0
 40
0
 40
0
 40
0
 40
0
 40
1
 40
1
 40
1
 40
1
 10
92.665480
 20
13.001403
 30
0.0
 10
92.665318
 20
12.173252
 30
0.0
 10
93.336329
 20
11.501663
 30
0.0
 10
94.164480
 20
11.501111
 30
0.0
  0
SPLINE
  5
15d
100
AcDbEntity
  8
Calque_1
 62
7
100
AcDbSpline
 70
8
 71
3
 72
8
 73
4
 74
0
 40
0
 40
0
 40
0
 40
0
 40
1
 40
1
 40
1
 40
1
 10
94.164480
 20
11.501111
 30
0.0
 10
94.992630
 20
11.500559
 30
0.0
 10
95.664536
 20
12.171253
 30
0.0
 10
95.665479
 20
12.999403
 30
0.0
  0
SPLINE
  5
15e
100
AcDbEntity
  8
Calque_1
 62
7
100
AcDbSpline
 70
8
 71
3
 72
8
 73
4
 74
0
 40
0
 40
0
 40
0
 40
0
 40
1
 40
1
 40
1
 40
1
 10
95.665479
 20
12.999403
 30
0.0
 10
95.665479
 20
12.999403
 30
0.0
 10
95.692789
 20
52.999394
 30
0.0
 10
95.692789
 20
52.999394
 30
0.0
  0
SPLINE
  5
15f
100
AcDbEntity
  8
Calque_1
 62
7
100
AcDbSpline
 70
8
 71
3
 72
8
 73
4
 74
0
 40
0
 40
0
 40
0
 40
0
 40
1
 40
1
 40
1
 40
1
 10
95.692789
 20
52.999394
 30
0.0
 10
95.692950
 20
53.827545
 30
0.0
 10
95.021940
 20
54.499134
 30
0.0
 10
94.193789
 20
54.499686
 30
0.0
  0
SPLINE
  5
160
100
AcDbEntity
  8
Calque_1
 62
7
100
AcDbSpline
 70
8
 71
3
 72
8
 73
4
 74
0
 40
0
 40
0
 40
0
 40
0
 40
1
 40
1
 40
1
 40
1
 10
94.193789
 20
54.499686
 30
0.0
 10
93.365638
 20
54.500238
 30
0.0
 10
92.693732
 20
53.829544
 30
0.0
 10
92.692790
 20
53.001394
 30
0.0
  0
LINE
  5
161
100
AcDbEntity
  8
Calque_1
 62
7
100
AcDbLine
 10
92.692790
 20
53.001394
 30
0.0
 11
92.665480
 21
13.001404
 31
0.0
  0
SPLINE
  5
162
100
AcDbEntity
  8
Calque_1
 62
7
100
AcDbSpline
 70
8
 71
3
 72
8
 73
4
 74
0
 40
0
 40
0
 40
0
 40
0
 40
1
 40
1
 40
1
 40
1
 10
32.665494
 20
13.042367
 30
0.0
 10
32.664884
 20
12.506301
 30
0.0
 10
32.950397
 20
12.010656
 30
0.0
 10
33.414423
 20
11.742240
 30
0.0
  0
SPLINE
  5
163
100
AcDbEntity
  8
Calque_1
 62
7
100
AcDbSpline
 70
8
 71
3
 72
8
 73
4
 74
0
 40
0
 40
0
 40
0
 40
0
 40
1
 40
1
 40
1
 40
1
 10
33.414423
 20
11.742240
 30
0.0
 10
33.878450
 20
11.473825
 30
0.0
 10
34.450447
 20
11.473443
 30
0.0
 10
34.914831
 20
11.741240
 30
0.0
  0
SPLINE
  5
164
100
AcDbEntity
  8
Calque_1
 62
7
100
AcDbSpline
 70
8
 71
3
 72
8
 73
4
 74
0
 40
0
 40
0
 40
0
 40
0
 40
1
 40
1
 40
1
 40
1
 10
34.914831
 20
11.741240
 30
0.0
 10
35.379215
 20
12.009037
 30
0.0
 10
35.665389
 20
12.504300
 30
0.0
 10
35.665493
 20
13.040367
 30
0.0
  0
SPLINE
  5
165
100
AcDbEntity
  8
Calque_1
 62
7
100
AcDbSpline
 70
8
 71
3
 72
8
 73
4
 74
0
 40
0
 40
0
 40
0
 40
0
 40
1
 40
1
 40
1
 40
1
 10
35.665493
 20
13.040367
 30
0.0
 10
35.665493
 20
13.040367
 30
0.0
 10
35.692803
 20
53.040358
 30
0.0
 10
35.692803
 20
53.040358
 30
0.0
  0
SPLINE
  5
166
100
AcDbEntity
  8
Calque_1
 62
7
100
AcDbSpline
 70
8
 71
3
 72
8
 73
4
 74
0
 40
0
 40
0
 40
0
 40
0
 40
1
 40
1
 40
1
 40
1
 10
35.692803
 20
53.040358
 30
0.0
 10
35.692965
 20
53.868509
 30
0.0
 10
35.021954
 20
54.540098
 30
0.0
 10
34.193803
 20
54.540650
 30
0.0
  0
SPLINE
  5
167
100
AcDbEntity
  8
Calque_1
 62
7
100
AcDbSpline
 70
8
 71
3
 72
8
 73
4
 74
0
 40
0
 40
0
 40
0
 40
0
 40
1
 40
1
 40
1
 40
1
 10
34.193803
 20
54.540650
 30
0.0
 10
33.365653
 20
54.541202
 30
0.0
 10
32.693747
 20
53.870508
 30
0.0
 10
32.692804
 20
53.042358
 30
0.0
  0
LINE
  5
168
100
AcDbEntity
  8
Calque_1
 62
7
100
AcDbLine
 10
32.692804
 20
53.042358
 30
0.0
 11
32.665494
 21
13.042367
 31
0.0
  0
LINE
  5
169
100
AcDbEntity
  8
Calque_1
 62
7
100
AcDbLine
 10
4.255956
 20
292.586307
 30
0.0
 11
4.255956
 21
327.586307
 31
0.0
  0
LINE
  5
16a
100
AcDbEntity
  8
Calque_1
 62
7
100
AcDbLine
 10
4.255956
 20
327.586307
 30
0.0
 11
19.255956
 21
327.586307
 31
0.0
  0
LINE
  5
16b
100
AcDbEntity
  8
Calque_1
 62
7
100
AcDbLine
 10
19.255956
 20
327.586307
 30
0.0
 11
19.255956
 21
332.586307
 31
0.0
  0
LINE
  5
16c
100
AcDbEntity
  8
Calque_1
 62
7
100
AcDbLine
 10
19.255956
 20
332.586307
 30
0.0
 11
49.255955
 21
332.586307
 31
0.0
  0
LINE
  5
16d
100
AcDbEntity
  8
Calque_1
 62
7
100
AcDbLine
 10
49.255955
 20
332.586307
 30
0.0
 11
49.255955
 21
327.586307
 31
0.0
  0
LINE
  5
16e
100
AcDbEntity
  8
Calque_1
 62
7
100
AcDbLine
 10
49.255955
 20
327.586307
 30
0.0
 11
54.255955
 21
327.586307
 31
0.0
  0
LINE
  5
16f
100
AcDbEntity
  8
Calque_1
 62
7
100
AcDbLine
 10
54.255955
 20
327.586307
 30
0.0
 11
54.255955
 21
322.586307
 31
0.0
  0
LINE
  5
170
100
AcDbEntity
  8
Calque_1
 62
7
100
AcDbLine
 10
54.255955
 20
322.586307
 30
0.0
 11
74.255955
 21
322.586307
 31
0.0
  0
LINE
  5
171
100
AcDbEntity
  8
Calque_1
 62
7
100
AcDbLine
 10
74.255955
 20
322.586307
 30
0.0
 11
74.255955
 21
327.586307
 31
0.0
  0
LINE
  5
172
100
AcDbEntity
  8
Calque_1
 62
7
100
AcDbLine
 10
74.255955
 20
327.586307
 30
0.0
 11
79.255955
 21
327.586307
 31
0.0
  0
LINE
  5
173
100
AcDbEntity
  8
Calque_1
 62
7
100
AcDbLine
 10
79.255955
 20
327.586307
 30
0.0
 11
79.255955
 21
332.586307
 31
0.0
  0
LINE
  5
174
100
AcDbEntity
  8
Calque_1
 62
7
100
AcDbLine
 10
79.255955
 20
332.586307
 30
0.0
 11
109.255955
 21
332.586307
 31
0.0
  0
LINE
  5
175
100
AcDbEntity
  8
Calque_1
 62
7
100
AcDbLine
 10
109.255955
 20
332.586307
 30
0.0
 11
109.255955
 21
327.586307
 31
0.0
  0
LINE
  5
176
100
AcDbEntity
  8
Calque_1
 62
7
100
AcDbLine
 10
109.255955
 20
327.586307
 30
0.0
 11
124.255955
 21
327.586307
 31
0.0
  0
LINE
  5
177
100
AcDbEntity
  8
Calque_1
 62
7
100
AcDbLine
 10
124.255955
 20
327.586307
 30
0.0
 11
124.255955
 21
292.586307
 31
0.0
  0
LINE
  5
178
100
AcDbEntity
  8
Calque_1
 62
7
100
AcDbLine
 10
124.255955
 20
292.586307
 30
0.0
 11
4.255956
 21
292.586307
 31
0.0
  0
ENDSEC
  0
SECTION
  2
OBJECTS
  0
DICTIONARY
  5
C
330
0
100
AcDbDictionary
  3
ACAD_GROUP
350
D
  3
ACAD_MLINESTYLE
350
17
  0
DICTIONARY
  5
D
330
C
100
AcDbDictionary
  0
DICTIONARY
  5
1A
330
C
100
AcDbDictionary
  0
DICTIONARY
  5
17
330
C
100
AcDbDictionary
  3
STANDARD
350
18
  0
DICTIONARY
  5
19
330
C
100
AcDbDictionary
  0
ENDSEC
  0
EOF
