<?xml version="1.0"?>
<!DOCTYPE svg PUBLIC "-//W3C//DTD SVG 1.1//EN" "http://www.w3.org/Graphics/SVG/1.1/DTD/svg11.dtd">
<svg width="122.4mm" height="247.39999999999998mm" viewBox="0 0 122.4 247.39999999999998" xmlns="http://www.w3.org/2000/svg" version="1.1">
<g id="Sketch004" transform="translate(61.200000,246.200000) scale(1,-1)">
<path id="Sketch004_w0000"  d="M -60.0 0.0 L 60.0 6.237722826210543e-32 L 60.0 245.0 L -60.0 245.0 L -60.0 0.0 " stroke="#000000" stroke-width="0.35 px" style="stroke-width:0.35;stroke-miterlimit:4;stroke-dasharray:none;fill:none;fill-rule: evenodd "/>
<path id="Sketch004_w0001"  d="M -48.5 125.0 A 1.5 1.5 0 1 1 -51.5 125L -51.5 105.0 A 1.5 1.5 0 1 1 -48.5 105L -48.5 125.0 " stroke="#000000" stroke-width="0.35 px" style="stroke-width:0.35;stroke-miterlimit:4;stroke-dasharray:none;fill:none;fill-rule: evenodd "/>
<path id="Sketch004_w0002"  d="M -28.5 125.0 A 1.5 1.5 0 0 1 -31.5 125L -31.5 105.0 A 1.5 1.5 0 1 1 -28.5 105L -28.5 125.0 " stroke="#000000" stroke-width="0.35 px" style="stroke-width:0.35;stroke-miterlimit:4;stroke-dasharray:none;fill:none;fill-rule: evenodd "/>
<path id="Sketch004_w0003"  d="M -48.5 65.0 A 1.5 1.5 0 1 1 -51.5 65L -51.5 45.0 A 1.5 1.5 0 1 1 -48.5 45L -48.5 65.0 " stroke="#000000" stroke-width="0.35 px" style="stroke-width:0.35;stroke-miterlimit:4;stroke-dasharray:none;fill:none;fill-rule: evenodd "/>
<path id="Sketch004_w0004"  d="M -28.5 65.0 A 1.5 1.5 0 0 1 -31.5 65L -31.5 45.0 A 1.5 1.5 0 1 1 -28.5 45L -28.5 65.0 " stroke="#000000" stroke-width="0.35 px" style="stroke-width:0.35;stroke-miterlimit:4;stroke-dasharray:none;fill:none;fill-rule: evenodd "/>
<path id="Sketch004_w0005"  d="M 31.5 125.0 A 1.5 1.5 0 1 1 28.5 125L 28.5 105.0 A 1.5 1.5 0 0 1 31.5 105L 31.5 125.0 " stroke="#000000" stroke-width="0.35 px" style="stroke-width:0.35;stroke-miterlimit:4;stroke-dasharray:none;fill:none;fill-rule: evenodd "/>
<path id="Sketch004_w0006"  d="M 51.5 125.0 A 1.5 1.5 0 0 1 48.5 125L 48.5 105.0 A 1.5 1.5 0 1 1 51.5 105L 51.5 125.0 " stroke="#000000" stroke-width="0.35 px" style="stroke-width:0.35;stroke-miterlimit:4;stroke-dasharray:none;fill:none;fill-rule: evenodd "/>
<path id="Sketch004_w0007"  d="M 31.5 65.0 A 1.5 1.5 0 0 1 28.5 65L 28.5 45.0 A 1.5 1.5 0 0 1 31.5 45L 31.5 65.0 " stroke="#000000" stroke-width="0.35 px" style="stroke-width:0.35;stroke-miterlimit:4;stroke-dasharray:none;fill:none;fill-rule: evenodd "/>
<path id="Sketch004_w0008"  d="M 51.5 65.0 A 1.5 1.5 0 0 1 48.5 65L 48.5 45.0 A 1.5 1.5 0 1 1 51.5 45L 51.5 65.0 " stroke="#000000" stroke-width="0.35 px" style="stroke-width:0.35;stroke-miterlimit:4;stroke-dasharray:none;fill:none;fill-rule: evenodd "/>
<path id="Sketch004_w0009"  d="M -3.0 30.0 A 3 3 0 0 1 3 30L 3.0 55.0 A 3 3 0 0 1 -3 55L -3.0 30.0 " stroke="#000000" stroke-width="0.35 px" style="stroke-width:0.35;stroke-miterlimit:4;stroke-dasharray:none;fill:none;fill-rule: evenodd "/>
<path id="Sketch004_w0010"  d="M -3.0 150.0 A 3 3 0 0 1 3 150L 3.0 175.0 A 3 3 0 1 1 -3 175L -3.0 150.0 " stroke="#000000" stroke-width="0.35 px" style="stroke-width:0.35;stroke-miterlimit:4;stroke-dasharray:none;fill:none;fill-rule: evenodd "/>
<path id="Sketch004_w0011"  d="M -28.5 235.0 A 1.5 1.5 0 1 1 -31.5 235L -31.5 195.0 A 1.5 1.5 0 1 1 -28.5 195L -28.5 235.0 " stroke="#000000" stroke-width="0.35 px" style="stroke-width:0.35;stroke-miterlimit:4;stroke-dasharray:none;fill:none;fill-rule: evenodd "/>
<path id="Sketch004_w0012"  d="M 31.5 235.0 A 1.5 1.5 0 0 1 28.5 235L 28.5 195.0 A 1.5 1.5 0 0 1 31.5 195L 31.5 235.0 " stroke="#000000" stroke-width="0.35 px" style="stroke-width:0.35;stroke-miterlimit:4;stroke-dasharray:none;fill:none;fill-rule: evenodd "/>
<path id="Sketch004_w0013"  d="M -49.999999999999986 87.5 L -30.000000000000007 87.5 L -30.000000000000007 82.5 L -49.999999999999986 82.5 L -49.999999999999986 87.5 " stroke="#000000" stroke-width="0.35 px" style="stroke-width:0.35;stroke-miterlimit:4;stroke-dasharray:none;fill:none;fill-rule: evenodd "/>
<path id="Sketch004_w0014"  d="M 29.999999999999993 87.5 L 49.99999999999999 87.5 L 49.99999999999999 82.5 L 29.999999999999993 82.5 L 29.999999999999993 87.5 " stroke="#000000" stroke-width="0.35 px" style="stroke-width:0.35;stroke-miterlimit:4;stroke-dasharray:none;fill:none;fill-rule: evenodd "/>
<title>b'SketchPlaqueDuDessus001'</title>
</g>
</svg>