  0
SECTION
  2
HEADER
  9
$ACADVER
  1
AC1014
  9
$HANDSEED
  5
FFFF
  9
$MEASUREMENT
 70
     1
  0
ENDSEC
  0
SECTION
  2
TABLES
  0
TABLE
  2
VPORT
  5
8
330
0
100
AcDbSymbolTable
 70
     4
  0
VPORT
  5
2E
330
8
100
AcDbSymbolTableRecord
100
AcDbViewportTableRecord
  2
*ACTIVE
 70
     0
 10
0.0
 20
0.0
 11
1.0
 21
1.0
 12
210.0
 22
148.5
 13
0.0
 23
0.0
 14
10.0
 24
10.0
 15
10.0
 25
10.0
 16
0.0
 26
0.0
 36
1.0
 17
0.0
 27
0.0
 37
0.0
 40
341.0
 41
1.24
 42
50.0
 43
0.0
 44
0.0
 50
0.0
 51
0.0
 71
     0
 72
   100
 73
     1
 74
     3
 75
     0
 76
     0
 77
     0
 78
     0
  0
ENDTAB
  0
TABLE
  2
LTYPE
  5
5
330
0
100
AcDbSymbolTable
 70
     1
  0
LTYPE
  5
14
330
5
100
AcDbSymbolTableRecord
100
AcDbLinetypeTableRecord
  2
BYBLOCK
 70
     0
  3

 72
    65
 73
     0
 40
0.0
  0
LTYPE
  5
15
330
5
100
AcDbSymbolTableRecord
100
AcDbLinetypeTableRecord
  2
BYLAYER
 70
     0
  3

 72
    65
 73
     0
 40
0.0
  0
LTYPE
  5
16
330
5
100
AcDbSymbolTableRecord
100
AcDbLinetypeTableRecord
  2
CONTINUOUS
 70
     0
  3
Solid line
 72
    65
 73
     0
 40
0.0
  0
ENDTAB
  0
TABLE
  2
LAYER
  5
2
100
AcDbSymbolTable
 70
2
  0
LAYER
  5
50
100
AcDbSymbolTableRecord
100
AcDbLayerTableRecord
  2
0
 70
0
  6
CONTINUOUS
  0
LAYER
  5
51
100
AcDbSymbolTableRecord
100
AcDbLayerTableRecord
  2
Calque_1
 70
0
  6
CONTINUOUS
  0
ENDTAB
  0
TABLE
  2
STYLE
  5
3
330
0
100
AcDbSymbolTable
 70
     1
  0
STYLE
  5
11
330
3
100
AcDbSymbolTableRecord
100
AcDbTextStyleTableRecord
  2
STANDARD
 70
     0
 40
0.0
 41
1.0
 50
0.0
 71
     0
 42
2.5
  3
txt
  4

  0
ENDTAB
  0
TABLE
  2
VIEW
  5
6
330
0
100
AcDbSymbolTable
 70
     0
  0
ENDTAB
  0
TABLE
  2
UCS
  5
7
330
0
100
AcDbSymbolTable
 70
     0
  0
ENDTAB
  0
TABLE
  2
APPID
  5
9
330
0
100
AcDbSymbolTable
 70
     2
  0
APPID
  5
12
330
9
100
AcDbSymbolTableRecord
100
AcDbRegAppTableRecord
  2
ACAD
 70
     0
  0
ENDTAB
  0
TABLE
  2
DIMSTYLE
  5
A
330
0
100
AcDbSymbolTable
 70
     1
  0
DIMSTYLE
105
27
330
A
100
AcDbSymbolTableRecord
100
AcDbDimStyleTableRecord
  2
ISO-25
 70
     0
  3

  4

  5

  6

  7

 40
1.0
 41
2.5
 42
0.625
 43
3.75
 44
1.25
 45
0.0
 46
0.0
 47
0.0
 48
0.0
140
2.5
141
2.5
142
0.0
143
0.03937007874016
144
1.0
145
0.0
146
1.0
147
0.625
 71
     0
 72
     0
 73
     0
 74
     0
 75
     0
 76
     0
 77
     1
 78
     8
170
     0
171
     3
172
     1
173
     0
174
     0
175
     0
176
     0
177
     0
178
     0
270
     2
271
     2
272
     2
273
     2
274
     3
340
11
275
     0
280
     0
281
     0
282
     0
283
     0
284
     8
285
     0
286
     0
287
     3
288
     0
  0
ENDTAB
  0
TABLE
  2
BLOCK_RECORD
  5
1
330
0
100
AcDbSymbolTable
 70
     1
  0
BLOCK_RECORD
  5
1F
330
1
100
AcDbSymbolTableRecord
100
AcDbBlockTableRecord
  2
*MODEL_SPACE
  0
BLOCK_RECORD
  5
1B
330
1
100
AcDbSymbolTableRecord
100
AcDbBlockTableRecord
  2
*PAPER_SPACE
  0
ENDTAB
  0
ENDSEC
  0
SECTION
  2
BLOCKS
  0
BLOCK
  5
20
330
1F
100
AcDbEntity
  8
0
100
AcDbBlockBegin
  2
*MODEL_SPACE
 70
     0
 10
0.0
 20
0.0
 30
0.0
  3
*MODEL_SPACE
  1

  0
ENDBLK
  5
21
330
1F
100
AcDbEntity
  8
0
100
AcDbBlockEnd
  0
BLOCK
  5
1C
330
1B
100
AcDbEntity
 67
     1
  8
0
100
AcDbBlockBegin
  2
*PAPER_SPACE
  1

  0
ENDBLK
  5
1D
330
1B
100
AcDbEntity
 67
     1
  8
0
100
AcDbBlockEnd
  0
ENDSEC
  0
SECTION
  2
ENTITIES
  0
LINE
  5
100
100
AcDbEntity
  8
Calque_1
 62
7
100
AcDbLine
 10
5.767860
 20
5.255950
 30
0.0
 11
125.767858
 21
5.255950
 31
0.0
  0
LINE
  5
101
100
AcDbEntity
  8
Calque_1
 62
7
100
AcDbLine
 10
125.767858
 20
5.255950
 30
0.0
 11
125.767858
 21
250.255948
 31
0.0
  0
LINE
  5
102
100
AcDbEntity
  8
Calque_1
 62
7
100
AcDbLine
 10
125.767858
 20
250.255948
 30
0.0
 11
5.767860
 21
250.255948
 31
0.0
  0
LINE
  5
103
100
AcDbEntity
  8
Calque_1
 62
7
100
AcDbLine
 10
5.767860
 20
250.255948
 30
0.0
 11
5.767860
 21
5.255950
 31
0.0
  0
SPLINE
  5
104
100
AcDbEntity
  8
Calque_1
 62
7
100
AcDbSpline
 70
8
 71
3
 72
8
 73
4
 74
0
 40
0
 40
0
 40
0
 40
0
 40
1
 40
1
 40
1
 40
1
 10
17.267859
 20
130.255949
 30
0.0
 10
17.267859
 20
130.791847
 30
0.0
 10
16.981961
 20
131.287038
 30
0.0
 10
16.517859
 20
131.554987
 30
0.0
  0
SPLINE
  5
105
100
AcDbEntity
  8
Calque_1
 62
7
100
AcDbSpline
 70
8
 71
3
 72
8
 73
4
 74
0
 40
0
 40
0
 40
0
 40
0
 40
1
 40
1
 40
1
 40
1
 10
16.517859
 20
131.554987
 30
0.0
 10
16.053758
 20
131.822936
 30
0.0
 10
15.481961
 20
131.822936
 30
0.0
 10
15.017860
 20
131.554987
 30
0.0
  0
SPLINE
  5
106
100
AcDbEntity
  8
Calque_1
 62
7
100
AcDbSpline
 70
8
 71
3
 72
8
 73
4
 74
0
 40
0
 40
0
 40
0
 40
0
 40
1
 40
1
 40
1
 40
1
 10
15.017860
 20
131.554987
 30
0.0
 10
14.553758
 20
131.287038
 30
0.0
 10
14.267860
 20
130.791847
 30
0.0
 10
14.267860
 20
130.255949
 30
0.0
  0
SPLINE
  5
107
100
AcDbEntity
  8
Calque_1
 62
7
100
AcDbSpline
 70
8
 71
3
 72
8
 73
4
 74
0
 40
0
 40
0
 40
0
 40
0
 40
1
 40
1
 40
1
 40
1
 10
14.267860
 20
130.255949
 30
0.0
 10
14.267860
 20
130.255949
 30
0.0
 10
14.267860
 20
110.255949
 30
0.0
 10
14.267860
 20
110.255949
 30
0.0
  0
SPLINE
  5
108
100
AcDbEntity
  8
Calque_1
 62
7
100
AcDbSpline
 70
8
 71
3
 72
8
 73
4
 74
0
 40
0
 40
0
 40
0
 40
0
 40
1
 40
1
 40
1
 40
1
 10
14.267860
 20
110.255949
 30
0.0
 10
14.267860
 20
109.720051
 30
0.0
 10
14.553758
 20
109.224860
 30
0.0
 10
15.017860
 20
108.956911
 30
0.0
  0
SPLINE
  5
109
100
AcDbEntity
  8
Calque_1
 62
7
100
AcDbSpline
 70
8
 71
3
 72
8
 73
4
 74
0
 40
0
 40
0
 40
0
 40
0
 40
1
 40
1
 40
1
 40
1
 10
15.017860
 20
108.956911
 30
0.0
 10
15.481961
 20
108.688962
 30
0.0
 10
16.053758
 20
108.688962
 30
0.0
 10
16.517859
 20
108.956911
 30
0.0
  0
SPLINE
  5
10a
100
AcDbEntity
  8
Calque_1
 62
7
100
AcDbSpline
 70
8
 71
3
 72
8
 73
4
 74
0
 40
0
 40
0
 40
0
 40
0
 40
1
 40
1
 40
1
 40
1
 10
16.517859
 20
108.956911
 30
0.0
 10
16.981961
 20
109.224860
 30
0.0
 10
17.267859
 20
109.720051
 30
0.0
 10
17.267859
 20
110.255949
 30
0.0
  0
LINE
  5
10b
100
AcDbEntity
  8
Calque_1
 62
7
100
AcDbLine
 10
17.267859
 20
110.255949
 30
0.0
 11
17.267859
 21
130.255949
 31
0.0
  0
SPLINE
  5
10c
100
AcDbEntity
  8
Calque_1
 62
7
100
AcDbSpline
 70
8
 71
3
 72
8
 73
4
 74
0
 40
0
 40
0
 40
0
 40
0
 40
1
 40
1
 40
1
 40
1
 10
37.267859
 20
130.255949
 30
0.0
 10
37.267859
 20
130.791847
 30
0.0
 10
36.981961
 20
131.287038
 30
0.0
 10
36.517859
 20
131.554987
 30
0.0
  0
SPLINE
  5
10d
100
AcDbEntity
  8
Calque_1
 62
7
100
AcDbSpline
 70
8
 71
3
 72
8
 73
4
 74
0
 40
0
 40
0
 40
0
 40
0
 40
1
 40
1
 40
1
 40
1
 10
36.517859
 20
131.554987
 30
0.0
 10
36.053758
 20
131.822936
 30
0.0
 10
35.481961
 20
131.822936
 30
0.0
 10
35.017859
 20
131.554987
 30
0.0
  0
SPLINE
  5
10e
100
AcDbEntity
  8
Calque_1
 62
7
100
AcDbSpline
 70
8
 71
3
 72
8
 73
4
 74
0
 40
0
 40
0
 40
0
 40
0
 40
1
 40
1
 40
1
 40
1
 10
35.017859
 20
131.554987
 30
0.0
 10
34.553758
 20
131.287038
 30
0.0
 10
34.267859
 20
130.791847
 30
0.0
 10
34.267859
 20
130.255949
 30
0.0
  0
LINE
  5
10f
100
AcDbEntity
  8
Calque_1
 62
7
100
AcDbLine
 10
34.267859
 20
130.255949
 30
0.0
 11
34.267859
 21
110.255949
 31
0.0
  0
SPLINE
  5
110
100
AcDbEntity
  8
Calque_1
 62
7
100
AcDbSpline
 70
8
 71
3
 72
8
 73
4
 74
0
 40
0
 40
0
 40
0
 40
0
 40
1
 40
1
 40
1
 40
1
 10
34.267859
 20
110.255949
 30
0.0
 10
34.267859
 20
109.720051
 30
0.0
 10
34.553758
 20
109.224860
 30
0.0
 10
35.017859
 20
108.956911
 30
0.0
  0
SPLINE
  5
111
100
AcDbEntity
  8
Calque_1
 62
7
100
AcDbSpline
 70
8
 71
3
 72
8
 73
4
 74
0
 40
0
 40
0
 40
0
 40
0
 40
1
 40
1
 40
1
 40
1
 10
35.017859
 20
108.956911
 30
0.0
 10
35.481961
 20
108.688962
 30
0.0
 10
36.053758
 20
108.688962
 30
0.0
 10
36.517859
 20
108.956911
 30
0.0
  0
SPLINE
  5
112
100
AcDbEntity
  8
Calque_1
 62
7
100
AcDbSpline
 70
8
 71
3
 72
8
 73
4
 74
0
 40
0
 40
0
 40
0
 40
0
 40
1
 40
1
 40
1
 40
1
 10
36.517859
 20
108.956911
 30
0.0
 10
36.981961
 20
109.224860
 30
0.0
 10
37.267859
 20
109.720051
 30
0.0
 10
37.267859
 20
110.255949
 30
0.0
  0
LINE
  5
113
100
AcDbEntity
  8
Calque_1
 62
7
100
AcDbLine
 10
37.267859
 20
110.255949
 30
0.0
 11
37.267859
 21
130.255949
 31
0.0
  0
SPLINE
  5
114
100
AcDbEntity
  8
Calque_1
 62
7
100
AcDbSpline
 70
8
 71
3
 72
8
 73
4
 74
0
 40
0
 40
0
 40
0
 40
0
 40
1
 40
1
 40
1
 40
1
 10
17.267859
 20
70.255949
 30
0.0
 10
17.267859
 20
70.791848
 30
0.0
 10
16.981961
 20
71.287038
 30
0.0
 10
16.517859
 20
71.554987
 30
0.0
  0
SPLINE
  5
115
100
AcDbEntity
  8
Calque_1
 62
7
100
AcDbSpline
 70
8
 71
3
 72
8
 73
4
 74
0
 40
0
 40
0
 40
0
 40
0
 40
1
 40
1
 40
1
 40
1
 10
16.517859
 20
71.554987
 30
0.0
 10
16.053758
 20
71.822937
 30
0.0
 10
15.481961
 20
71.822937
 30
0.0
 10
15.017860
 20
71.554987
 30
0.0
  0
SPLINE
  5
116
100
AcDbEntity
  8
Calque_1
 62
7
100
AcDbSpline
 70
8
 71
3
 72
8
 73
4
 74
0
 40
0
 40
0
 40
0
 40
0
 40
1
 40
1
 40
1
 40
1
 10
15.017860
 20
71.554987
 30
0.0
 10
14.553758
 20
71.287038
 30
0.0
 10
14.267860
 20
70.791848
 30
0.0
 10
14.267860
 20
70.255949
 30
0.0
  0
SPLINE
  5
117
100
AcDbEntity
  8
Calque_1
 62
7
100
AcDbSpline
 70
8
 71
3
 72
8
 73
4
 74
0
 40
0
 40
0
 40
0
 40
0
 40
1
 40
1
 40
1
 40
1
 10
14.267860
 20
70.255949
 30
0.0
 10
14.267860
 20
70.255949
 30
0.0
 10
14.267860
 20
50.255950
 30
0.0
 10
14.267860
 20
50.255950
 30
0.0
  0
SPLINE
  5
118
100
AcDbEntity
  8
Calque_1
 62
7
100
AcDbSpline
 70
8
 71
3
 72
8
 73
4
 74
0
 40
0
 40
0
 40
0
 40
0
 40
1
 40
1
 40
1
 40
1
 10
14.267860
 20
50.255950
 30
0.0
 10
14.267860
 20
49.720051
 30
0.0
 10
14.553758
 20
49.224861
 30
0.0
 10
15.017860
 20
48.956911
 30
0.0
  0
SPLINE
  5
119
100
AcDbEntity
  8
Calque_1
 62
7
100
AcDbSpline
 70
8
 71
3
 72
8
 73
4
 74
0
 40
0
 40
0
 40
0
 40
0
 40
1
 40
1
 40
1
 40
1
 10
15.017860
 20
48.956911
 30
0.0
 10
15.481961
 20
48.688962
 30
0.0
 10
16.053758
 20
48.688962
 30
0.0
 10
16.517859
 20
48.956911
 30
0.0
  0
SPLINE
  5
11a
100
AcDbEntity
  8
Calque_1
 62
7
100
AcDbSpline
 70
8
 71
3
 72
8
 73
4
 74
0
 40
0
 40
0
 40
0
 40
0
 40
1
 40
1
 40
1
 40
1
 10
16.517859
 20
48.956911
 30
0.0
 10
16.981961
 20
49.224861
 30
0.0
 10
17.267859
 20
49.720051
 30
0.0
 10
17.267859
 20
50.255950
 30
0.0
  0
LINE
  5
11b
100
AcDbEntity
  8
Calque_1
 62
7
100
AcDbLine
 10
17.267859
 20
50.255950
 30
0.0
 11
17.267859
 21
70.255949
 31
0.0
  0
SPLINE
  5
11c
100
AcDbEntity
  8
Calque_1
 62
7
100
AcDbSpline
 70
8
 71
3
 72
8
 73
4
 74
0
 40
0
 40
0
 40
0
 40
0
 40
1
 40
1
 40
1
 40
1
 10
37.267859
 20
70.255949
 30
0.0
 10
37.267859
 20
70.791848
 30
0.0
 10
36.981961
 20
71.287038
 30
0.0
 10
36.517859
 20
71.554987
 30
0.0
  0
SPLINE
  5
11d
100
AcDbEntity
  8
Calque_1
 62
7
100
AcDbSpline
 70
8
 71
3
 72
8
 73
4
 74
0
 40
0
 40
0
 40
0
 40
0
 40
1
 40
1
 40
1
 40
1
 10
36.517859
 20
71.554987
 30
0.0
 10
36.053758
 20
71.822937
 30
0.0
 10
35.481961
 20
71.822937
 30
0.0
 10
35.017859
 20
71.554987
 30
0.0
  0
SPLINE
  5
11e
100
AcDbEntity
  8
Calque_1
 62
7
100
AcDbSpline
 70
8
 71
3
 72
8
 73
4
 74
0
 40
0
 40
0
 40
0
 40
0
 40
1
 40
1
 40
1
 40
1
 10
35.017859
 20
71.554987
 30
0.0
 10
34.553758
 20
71.287038
 30
0.0
 10
34.267859
 20
70.791848
 30
0.0
 10
34.267859
 20
70.255949
 30
0.0
  0
LINE
  5
11f
100
AcDbEntity
  8
Calque_1
 62
7
100
AcDbLine
 10
34.267859
 20
70.255949
 30
0.0
 11
34.267859
 21
50.255950
 31
0.0
  0
SPLINE
  5
120
100
AcDbEntity
  8
Calque_1
 62
7
100
AcDbSpline
 70
8
 71
3
 72
8
 73
4
 74
0
 40
0
 40
0
 40
0
 40
0
 40
1
 40
1
 40
1
 40
1
 10
34.267859
 20
50.255950
 30
0.0
 10
34.267859
 20
49.720051
 30
0.0
 10
34.553758
 20
49.224861
 30
0.0
 10
35.017859
 20
48.956911
 30
0.0
  0
SPLINE
  5
121
100
AcDbEntity
  8
Calque_1
 62
7
100
AcDbSpline
 70
8
 71
3
 72
8
 73
4
 74
0
 40
0
 40
0
 40
0
 40
0
 40
1
 40
1
 40
1
 40
1
 10
35.017859
 20
48.956911
 30
0.0
 10
35.481961
 20
48.688962
 30
0.0
 10
36.053758
 20
48.688962
 30
0.0
 10
36.517859
 20
48.956911
 30
0.0
  0
SPLINE
  5
122
100
AcDbEntity
  8
Calque_1
 62
7
100
AcDbSpline
 70
8
 71
3
 72
8
 73
4
 74
0
 40
0
 40
0
 40
0
 40
0
 40
1
 40
1
 40
1
 40
1
 10
36.517859
 20
48.956911
 30
0.0
 10
36.981961
 20
49.224861
 30
0.0
 10
37.267859
 20
49.720051
 30
0.0
 10
37.267859
 20
50.255950
 30
0.0
  0
LINE
  5
123
100
AcDbEntity
  8
Calque_1
 62
7
100
AcDbLine
 10
37.267859
 20
50.255950
 30
0.0
 11
37.267859
 21
70.255949
 31
0.0
  0
SPLINE
  5
124
100
AcDbEntity
  8
Calque_1
 62
7
100
AcDbSpline
 70
8
 71
3
 72
8
 73
4
 74
0
 40
0
 40
0
 40
0
 40
0
 40
1
 40
1
 40
1
 40
1
 10
97.267859
 20
130.255949
 30
0.0
 10
97.267859
 20
130.791847
 30
0.0
 10
96.981960
 20
131.287038
 30
0.0
 10
96.517859
 20
131.554987
 30
0.0
  0
SPLINE
  5
125
100
AcDbEntity
  8
Calque_1
 62
7
100
AcDbSpline
 70
8
 71
3
 72
8
 73
4
 74
0
 40
0
 40
0
 40
0
 40
0
 40
1
 40
1
 40
1
 40
1
 10
96.517859
 20
131.554987
 30
0.0
 10
96.053757
 20
131.822936
 30
0.0
 10
95.481960
 20
131.822936
 30
0.0
 10
95.017859
 20
131.554987
 30
0.0
  0
SPLINE
  5
126
100
AcDbEntity
  8
Calque_1
 62
7
100
AcDbSpline
 70
8
 71
3
 72
8
 73
4
 74
0
 40
0
 40
0
 40
0
 40
0
 40
1
 40
1
 40
1
 40
1
 10
95.017859
 20
131.554987
 30
0.0
 10
94.553757
 20
131.287038
 30
0.0
 10
94.267859
 20
130.791847
 30
0.0
 10
94.267859
 20
130.255949
 30
0.0
  0
LINE
  5
127
100
AcDbEntity
  8
Calque_1
 62
7
100
AcDbLine
 10
94.267859
 20
130.255949
 30
0.0
 11
94.267859
 21
110.255949
 31
0.0
  0
SPLINE
  5
128
100
AcDbEntity
  8
Calque_1
 62
7
100
AcDbSpline
 70
8
 71
3
 72
8
 73
4
 74
0
 40
0
 40
0
 40
0
 40
0
 40
1
 40
1
 40
1
 40
1
 10
94.267859
 20
110.255949
 30
0.0
 10
94.267859
 20
109.720051
 30
0.0
 10
94.553757
 20
109.224860
 30
0.0
 10
95.017859
 20
108.956911
 30
0.0
  0
SPLINE
  5
129
100
AcDbEntity
  8
Calque_1
 62
7
100
AcDbSpline
 70
8
 71
3
 72
8
 73
4
 74
0
 40
0
 40
0
 40
0
 40
0
 40
1
 40
1
 40
1
 40
1
 10
95.017859
 20
108.956911
 30
0.0
 10
95.481960
 20
108.688962
 30
0.0
 10
96.053757
 20
108.688962
 30
0.0
 10
96.517859
 20
108.956911
 30
0.0
  0
SPLINE
  5
12a
100
AcDbEntity
  8
Calque_1
 62
7
100
AcDbSpline
 70
8
 71
3
 72
8
 73
4
 74
0
 40
0
 40
0
 40
0
 40
0
 40
1
 40
1
 40
1
 40
1
 10
96.517859
 20
108.956911
 30
0.0
 10
96.981960
 20
109.224860
 30
0.0
 10
97.267859
 20
109.720051
 30
0.0
 10
97.267859
 20
110.255949
 30
0.0
  0
LINE
  5
12b
100
AcDbEntity
  8
Calque_1
 62
7
100
AcDbLine
 10
97.267859
 20
110.255949
 30
0.0
 11
97.267859
 21
130.255949
 31
0.0
  0
SPLINE
  5
12c
100
AcDbEntity
  8
Calque_1
 62
7
100
AcDbSpline
 70
8
 71
3
 72
8
 73
4
 74
0
 40
0
 40
0
 40
0
 40
0
 40
1
 40
1
 40
1
 40
1
 10
117.267858
 20
130.255949
 30
0.0
 10
117.267858
 20
130.791847
 30
0.0
 10
116.981960
 20
131.287038
 30
0.0
 10
116.517858
 20
131.554987
 30
0.0
  0
SPLINE
  5
12d
100
AcDbEntity
  8
Calque_1
 62
7
100
AcDbSpline
 70
8
 71
3
 72
8
 73
4
 74
0
 40
0
 40
0
 40
0
 40
0
 40
1
 40
1
 40
1
 40
1
 10
116.517858
 20
131.554987
 30
0.0
 10
116.053757
 20
131.822936
 30
0.0
 10
115.481960
 20
131.822936
 30
0.0
 10
115.017859
 20
131.554987
 30
0.0
  0
SPLINE
  5
12e
100
AcDbEntity
  8
Calque_1
 62
7
100
AcDbSpline
 70
8
 71
3
 72
8
 73
4
 74
0
 40
0
 40
0
 40
0
 40
0
 40
1
 40
1
 40
1
 40
1
 10
115.017859
 20
131.554987
 30
0.0
 10
114.553757
 20
131.287038
 30
0.0
 10
114.267859
 20
130.791847
 30
0.0
 10
114.267859
 20
130.255949
 30
0.0
  0
SPLINE
  5
12f
100
AcDbEntity
  8
Calque_1
 62
7
100
AcDbSpline
 70
8
 71
3
 72
8
 73
4
 74
0
 40
0
 40
0
 40
0
 40
0
 40
1
 40
1
 40
1
 40
1
 10
114.267859
 20
130.255949
 30
0.0
 10
114.267859
 20
130.255949
 30
0.0
 10
114.267859
 20
110.255949
 30
0.0
 10
114.267859
 20
110.255949
 30
0.0
  0
SPLINE
  5
130
100
AcDbEntity
  8
Calque_1
 62
7
100
AcDbSpline
 70
8
 71
3
 72
8
 73
4
 74
0
 40
0
 40
0
 40
0
 40
0
 40
1
 40
1
 40
1
 40
1
 10
114.267859
 20
110.255949
 30
0.0
 10
114.267859
 20
109.720051
 30
0.0
 10
114.553757
 20
109.224860
 30
0.0
 10
115.017859
 20
108.956911
 30
0.0
  0
SPLINE
  5
131
100
AcDbEntity
  8
Calque_1
 62
7
100
AcDbSpline
 70
8
 71
3
 72
8
 73
4
 74
0
 40
0
 40
0
 40
0
 40
0
 40
1
 40
1
 40
1
 40
1
 10
115.017859
 20
108.956911
 30
0.0
 10
115.481960
 20
108.688962
 30
0.0
 10
116.053757
 20
108.688962
 30
0.0
 10
116.517858
 20
108.956911
 30
0.0
  0
SPLINE
  5
132
100
AcDbEntity
  8
Calque_1
 62
7
100
AcDbSpline
 70
8
 71
3
 72
8
 73
4
 74
0
 40
0
 40
0
 40
0
 40
0
 40
1
 40
1
 40
1
 40
1
 10
116.517858
 20
108.956911
 30
0.0
 10
116.981960
 20
109.224860
 30
0.0
 10
117.267858
 20
109.720051
 30
0.0
 10
117.267858
 20
110.255949
 30
0.0
  0
LINE
  5
133
100
AcDbEntity
  8
Calque_1
 62
7
100
AcDbLine
 10
117.267858
 20
110.255949
 30
0.0
 11
117.267858
 21
130.255949
 31
0.0
  0
SPLINE
  5
134
100
AcDbEntity
  8
Calque_1
 62
7
100
AcDbSpline
 70
8
 71
3
 72
8
 73
4
 74
0
 40
0
 40
0
 40
0
 40
0
 40
1
 40
1
 40
1
 40
1
 10
97.267859
 20
70.255949
 30
0.0
 10
97.267859
 20
70.791848
 30
0.0
 10
96.981960
 20
71.287038
 30
0.0
 10
96.517859
 20
71.554987
 30
0.0
  0
SPLINE
  5
135
100
AcDbEntity
  8
Calque_1
 62
7
100
AcDbSpline
 70
8
 71
3
 72
8
 73
4
 74
0
 40
0
 40
0
 40
0
 40
0
 40
1
 40
1
 40
1
 40
1
 10
96.517859
 20
71.554987
 30
0.0
 10
96.053757
 20
71.822937
 30
0.0
 10
95.481960
 20
71.822937
 30
0.0
 10
95.017859
 20
71.554987
 30
0.0
  0
SPLINE
  5
136
100
AcDbEntity
  8
Calque_1
 62
7
100
AcDbSpline
 70
8
 71
3
 72
8
 73
4
 74
0
 40
0
 40
0
 40
0
 40
0
 40
1
 40
1
 40
1
 40
1
 10
95.017859
 20
71.554987
 30
0.0
 10
94.553757
 20
71.287038
 30
0.0
 10
94.267859
 20
70.791848
 30
0.0
 10
94.267859
 20
70.255949
 30
0.0
  0
LINE
  5
137
100
AcDbEntity
  8
Calque_1
 62
7
100
AcDbLine
 10
94.267859
 20
70.255949
 30
0.0
 11
94.267859
 21
50.255950
 31
0.0
  0
SPLINE
  5
138
100
AcDbEntity
  8
Calque_1
 62
7
100
AcDbSpline
 70
8
 71
3
 72
8
 73
4
 74
0
 40
0
 40
0
 40
0
 40
0
 40
1
 40
1
 40
1
 40
1
 10
94.267859
 20
50.255950
 30
0.0
 10
94.267859
 20
49.720051
 30
0.0
 10
94.553757
 20
49.224861
 30
0.0
 10
95.017859
 20
48.956911
 30
0.0
  0
SPLINE
  5
139
100
AcDbEntity
  8
Calque_1
 62
7
100
AcDbSpline
 70
8
 71
3
 72
8
 73
4
 74
0
 40
0
 40
0
 40
0
 40
0
 40
1
 40
1
 40
1
 40
1
 10
95.017859
 20
48.956911
 30
0.0
 10
95.481960
 20
48.688962
 30
0.0
 10
96.053757
 20
48.688962
 30
0.0
 10
96.517859
 20
48.956911
 30
0.0
  0
SPLINE
  5
13a
100
AcDbEntity
  8
Calque_1
 62
7
100
AcDbSpline
 70
8
 71
3
 72
8
 73
4
 74
0
 40
0
 40
0
 40
0
 40
0
 40
1
 40
1
 40
1
 40
1
 10
96.517859
 20
48.956911
 30
0.0
 10
96.981960
 20
49.224861
 30
0.0
 10
97.267859
 20
49.720051
 30
0.0
 10
97.267859
 20
50.255950
 30
0.0
  0
LINE
  5
13b
100
AcDbEntity
  8
Calque_1
 62
7
100
AcDbLine
 10
97.267859
 20
50.255950
 30
0.0
 11
97.267859
 21
70.255949
 31
0.0
  0
SPLINE
  5
13c
100
AcDbEntity
  8
Calque_1
 62
7
100
AcDbSpline
 70
8
 71
3
 72
8
 73
4
 74
0
 40
0
 40
0
 40
0
 40
0
 40
1
 40
1
 40
1
 40
1
 10
117.267858
 20
70.255949
 30
0.0
 10
117.267858
 20
70.791848
 30
0.0
 10
116.981960
 20
71.287038
 30
0.0
 10
116.517858
 20
71.554987
 30
0.0
  0
SPLINE
  5
13d
100
AcDbEntity
  8
Calque_1
 62
7
100
AcDbSpline
 70
8
 71
3
 72
8
 73
4
 74
0
 40
0
 40
0
 40
0
 40
0
 40
1
 40
1
 40
1
 40
1
 10
116.517858
 20
71.554987
 30
0.0
 10
116.053757
 20
71.822937
 30
0.0
 10
115.481960
 20
71.822937
 30
0.0
 10
115.017859
 20
71.554987
 30
0.0
  0
SPLINE
  5
13e
100
AcDbEntity
  8
Calque_1
 62
7
100
AcDbSpline
 70
8
 71
3
 72
8
 73
4
 74
0
 40
0
 40
0
 40
0
 40
0
 40
1
 40
1
 40
1
 40
1
 10
115.017859
 20
71.554987
 30
0.0
 10
114.553757
 20
71.287038
 30
0.0
 10
114.267859
 20
70.791848
 30
0.0
 10
114.267859
 20
70.255949
 30
0.0
  0
SPLINE
  5
13f
100
AcDbEntity
  8
Calque_1
 62
7
100
AcDbSpline
 70
8
 71
3
 72
8
 73
4
 74
0
 40
0
 40
0
 40
0
 40
0
 40
1
 40
1
 40
1
 40
1
 10
114.267859
 20
70.255949
 30
0.0
 10
114.267859
 20
70.255949
 30
0.0
 10
114.267859
 20
50.255950
 30
0.0
 10
114.267859
 20
50.255950
 30
0.0
  0
SPLINE
  5
140
100
AcDbEntity
  8
Calque_1
 62
7
100
AcDbSpline
 70
8
 71
3
 72
8
 73
4
 74
0
 40
0
 40
0
 40
0
 40
0
 40
1
 40
1
 40
1
 40
1
 10
114.267859
 20
50.255950
 30
0.0
 10
114.267859
 20
49.720051
 30
0.0
 10
114.553757
 20
49.224861
 30
0.0
 10
115.017859
 20
48.956911
 30
0.0
  0
SPLINE
  5
141
100
AcDbEntity
  8
Calque_1
 62
7
100
AcDbSpline
 70
8
 71
3
 72
8
 73
4
 74
0
 40
0
 40
0
 40
0
 40
0
 40
1
 40
1
 40
1
 40
1
 10
115.017859
 20
48.956911
 30
0.0
 10
115.481960
 20
48.688962
 30
0.0
 10
116.053757
 20
48.688962
 30
0.0
 10
116.517858
 20
48.956911
 30
0.0
  0
SPLINE
  5
142
100
AcDbEntity
  8
Calque_1
 62
7
100
AcDbSpline
 70
8
 71
3
 72
8
 73
4
 74
0
 40
0
 40
0
 40
0
 40
0
 40
1
 40
1
 40
1
 40
1
 10
116.517858
 20
48.956911
 30
0.0
 10
116.981960
 20
49.224861
 30
0.0
 10
117.267858
 20
49.720051
 30
0.0
 10
117.267858
 20
50.255950
 30
0.0
  0
LINE
  5
143
100
AcDbEntity
  8
Calque_1
 62
7
100
AcDbLine
 10
117.267858
 20
50.255950
 30
0.0
 11
117.267858
 21
70.255949
 31
0.0
  0
SPLINE
  5
144
100
AcDbEntity
  8
Calque_1
 62
7
100
AcDbSpline
 70
8
 71
3
 72
8
 73
4
 74
0
 40
0
 40
0
 40
0
 40
0
 40
1
 40
1
 40
1
 40
1
 10
62.767859
 20
35.255950
 30
0.0
 10
62.767859
 20
34.184153
 30
0.0
 10
63.339656
 20
33.193772
 30
0.0
 10
64.267859
 20
32.657874
 30
0.0
  0
SPLINE
  5
145
100
AcDbEntity
  8
Calque_1
 62
7
100
AcDbSpline
 70
8
 71
3
 72
8
 73
4
 74
0
 40
0
 40
0
 40
0
 40
0
 40
1
 40
1
 40
1
 40
1
 10
64.267859
 20
32.657874
 30
0.0
 10
65.196062
 20
32.121975
 30
0.0
 10
66.339656
 20
32.121975
 30
0.0
 10
67.267859
 20
32.657874
 30
0.0
  0
SPLINE
  5
146
100
AcDbEntity
  8
Calque_1
 62
7
100
AcDbSpline
 70
8
 71
3
 72
8
 73
4
 74
0
 40
0
 40
0
 40
0
 40
0
 40
1
 40
1
 40
1
 40
1
 10
67.267859
 20
32.657874
 30
0.0
 10
68.196062
 20
33.193772
 30
0.0
 10
68.767859
 20
34.184153
 30
0.0
 10
68.767859
 20
35.255950
 30
0.0
  0
LINE
  5
147
100
AcDbEntity
  8
Calque_1
 62
7
100
AcDbLine
 10
68.767859
 20
35.255950
 30
0.0
 11
68.767859
 21
60.255949
 31
0.0
  0
SPLINE
  5
148
100
AcDbEntity
  8
Calque_1
 62
7
100
AcDbSpline
 70
8
 71
3
 72
8
 73
4
 74
0
 40
0
 40
0
 40
0
 40
0
 40
1
 40
1
 40
1
 40
1
 10
68.767859
 20
60.255949
 30
0.0
 10
68.767859
 20
61.327746
 30
0.0
 10
68.196062
 20
62.318127
 30
0.0
 10
67.267859
 20
62.854026
 30
0.0
  0
SPLINE
  5
149
100
AcDbEntity
  8
Calque_1
 62
7
100
AcDbSpline
 70
8
 71
3
 72
8
 73
4
 74
0
 40
0
 40
0
 40
0
 40
0
 40
1
 40
1
 40
1
 40
1
 10
67.267859
 20
62.854026
 30
0.0
 10
66.339656
 20
63.389924
 30
0.0
 10
65.196062
 20
63.389924
 30
0.0
 10
64.267859
 20
62.854026
 30
0.0
  0
SPLINE
  5
14a
100
AcDbEntity
  8
Calque_1
 62
7
100
AcDbSpline
 70
8
 71
3
 72
8
 73
4
 74
0
 40
0
 40
0
 40
0
 40
0
 40
1
 40
1
 40
1
 40
1
 10
64.267859
 20
62.854026
 30
0.0
 10
63.339656
 20
62.318127
 30
0.0
 10
62.767859
 20
61.327746
 30
0.0
 10
62.767859
 20
60.255949
 30
0.0
  0
LINE
  5
14b
100
AcDbEntity
  8
Calque_1
 62
7
100
AcDbLine
 10
62.767859
 20
60.255949
 30
0.0
 11
62.767859
 21
35.255950
 31
0.0
  0
SPLINE
  5
14c
100
AcDbEntity
  8
Calque_1
 62
7
100
AcDbSpline
 70
8
 71
3
 72
8
 73
4
 74
0
 40
0
 40
0
 40
0
 40
0
 40
1
 40
1
 40
1
 40
1
 10
62.767859
 20
155.255949
 30
0.0
 10
62.767859
 20
154.184152
 30
0.0
 10
63.339656
 20
153.193771
 30
0.0
 10
64.267859
 20
152.657872
 30
0.0
  0
SPLINE
  5
14d
100
AcDbEntity
  8
Calque_1
 62
7
100
AcDbSpline
 70
8
 71
3
 72
8
 73
4
 74
0
 40
0
 40
0
 40
0
 40
0
 40
1
 40
1
 40
1
 40
1
 10
64.267859
 20
152.657872
 30
0.0
 10
65.196062
 20
152.121974
 30
0.0
 10
66.339656
 20
152.121974
 30
0.0
 10
67.267859
 20
152.657872
 30
0.0
  0
SPLINE
  5
14e
100
AcDbEntity
  8
Calque_1
 62
7
100
AcDbSpline
 70
8
 71
3
 72
8
 73
4
 74
0
 40
0
 40
0
 40
0
 40
0
 40
1
 40
1
 40
1
 40
1
 10
67.267859
 20
152.657872
 30
0.0
 10
68.196062
 20
153.193771
 30
0.0
 10
68.767859
 20
154.184152
 30
0.0
 10
68.767859
 20
155.255949
 30
0.0
  0
LINE
  5
14f
100
AcDbEntity
  8
Calque_1
 62
7
100
AcDbLine
 10
68.767859
 20
155.255949
 30
0.0
 11
68.767859
 21
180.255948
 31
0.0
  0
SPLINE
  5
150
100
AcDbEntity
  8
Calque_1
 62
7
100
AcDbSpline
 70
8
 71
3
 72
8
 73
4
 74
0
 40
0
 40
0
 40
0
 40
0
 40
1
 40
1
 40
1
 40
1
 10
68.767859
 20
180.255948
 30
0.0
 10
68.767859
 20
181.327745
 30
0.0
 10
68.196062
 20
182.318126
 30
0.0
 10
67.267859
 20
182.854024
 30
0.0
  0
SPLINE
  5
151
100
AcDbEntity
  8
Calque_1
 62
7
100
AcDbSpline
 70
8
 71
3
 72
8
 73
4
 74
0
 40
0
 40
0
 40
0
 40
0
 40
1
 40
1
 40
1
 40
1
 10
67.267859
 20
182.854024
 30
0.0
 10
66.339656
 20
183.389923
 30
0.0
 10
65.196062
 20
183.389923
 30
0.0
 10
64.267859
 20
182.854024
 30
0.0
  0
SPLINE
  5
152
100
AcDbEntity
  8
Calque_1
 62
7
100
AcDbSpline
 70
8
 71
3
 72
8
 73
4
 74
0
 40
0
 40
0
 40
0
 40
0
 40
1
 40
1
 40
1
 40
1
 10
64.267859
 20
182.854024
 30
0.0
 10
63.339656
 20
182.318126
 30
0.0
 10
62.767859
 20
181.327745
 30
0.0
 10
62.767859
 20
180.255948
 30
0.0
  0
LINE
  5
153
100
AcDbEntity
  8
Calque_1
 62
7
100
AcDbLine
 10
62.767859
 20
180.255948
 30
0.0
 11
62.767859
 21
155.255949
 31
0.0
  0
SPLINE
  5
154
100
AcDbEntity
  8
Calque_1
 62
7
100
AcDbSpline
 70
8
 71
3
 72
8
 73
4
 74
0
 40
0
 40
0
 40
0
 40
0
 40
1
 40
1
 40
1
 40
1
 10
37.267859
 20
240.255948
 30
0.0
 10
37.267859
 20
240.791846
 30
0.0
 10
36.981961
 20
241.287037
 30
0.0
 10
36.517859
 20
241.554986
 30
0.0
  0
SPLINE
  5
155
100
AcDbEntity
  8
Calque_1
 62
7
100
AcDbSpline
 70
8
 71
3
 72
8
 73
4
 74
0
 40
0
 40
0
 40
0
 40
0
 40
1
 40
1
 40
1
 40
1
 10
36.517859
 20
241.554986
 30
0.0
 10
36.053758
 20
241.822935
 30
0.0
 10
35.481961
 20
241.822935
 30
0.0
 10
35.017859
 20
241.554986
 30
0.0
  0
SPLINE
  5
156
100
AcDbEntity
  8
Calque_1
 62
7
100
AcDbSpline
 70
8
 71
3
 72
8
 73
4
 74
0
 40
0
 40
0
 40
0
 40
0
 40
1
 40
1
 40
1
 40
1
 10
35.017859
 20
241.554986
 30
0.0
 10
34.553758
 20
241.287037
 30
0.0
 10
34.267859
 20
240.791846
 30
0.0
 10
34.267859
 20
240.255948
 30
0.0
  0
LINE
  5
157
100
AcDbEntity
  8
Calque_1
 62
7
100
AcDbLine
 10
34.267859
 20
240.255948
 30
0.0
 11
34.267859
 21
200.255948
 31
0.0
  0
SPLINE
  5
158
100
AcDbEntity
  8
Calque_1
 62
7
100
AcDbSpline
 70
8
 71
3
 72
8
 73
4
 74
0
 40
0
 40
0
 40
0
 40
0
 40
1
 40
1
 40
1
 40
1
 10
34.267859
 20
200.255948
 30
0.0
 10
34.267859
 20
199.720050
 30
0.0
 10
34.553758
 20
199.224859
 30
0.0
 10
35.017859
 20
198.956910
 30
0.0
  0
SPLINE
  5
159
100
AcDbEntity
  8
Calque_1
 62
7
100
AcDbSpline
 70
8
 71
3
 72
8
 73
4
 74
0
 40
0
 40
0
 40
0
 40
0
 40
1
 40
1
 40
1
 40
1
 10
35.017859
 20
198.956910
 30
0.0
 10
35.481961
 20
198.688961
 30
0.0
 10
36.053758
 20
198.688961
 30
0.0
 10
36.517859
 20
198.956910
 30
0.0
  0
SPLINE
  5
15a
100
AcDbEntity
  8
Calque_1
 62
7
100
AcDbSpline
 70
8
 71
3
 72
8
 73
4
 74
0
 40
0
 40
0
 40
0
 40
0
 40
1
 40
1
 40
1
 40
1
 10
36.517859
 20
198.956910
 30
0.0
 10
36.981961
 20
199.224859
 30
0.0
 10
37.267859
 20
199.720050
 30
0.0
 10
37.267859
 20
200.255948
 30
0.0
  0
LINE
  5
15b
100
AcDbEntity
  8
Calque_1
 62
7
100
AcDbLine
 10
37.267859
 20
200.255948
 30
0.0
 11
37.267859
 21
240.255948
 31
0.0
  0
SPLINE
  5
15c
100
AcDbEntity
  8
Calque_1
 62
7
100
AcDbSpline
 70
8
 71
3
 72
8
 73
4
 74
0
 40
0
 40
0
 40
0
 40
0
 40
1
 40
1
 40
1
 40
1
 10
97.267859
 20
240.255948
 30
0.0
 10
97.267859
 20
240.791846
 30
0.0
 10
96.981960
 20
241.287037
 30
0.0
 10
96.517859
 20
241.554986
 30
0.0
  0
SPLINE
  5
15d
100
AcDbEntity
  8
Calque_1
 62
7
100
AcDbSpline
 70
8
 71
3
 72
8
 73
4
 74
0
 40
0
 40
0
 40
0
 40
0
 40
1
 40
1
 40
1
 40
1
 10
96.517859
 20
241.554986
 30
0.0
 10
96.053757
 20
241.822935
 30
0.0
 10
95.481960
 20
241.822935
 30
0.0
 10
95.017859
 20
241.554986
 30
0.0
  0
SPLINE
  5
15e
100
AcDbEntity
  8
Calque_1
 62
7
100
AcDbSpline
 70
8
 71
3
 72
8
 73
4
 74
0
 40
0
 40
0
 40
0
 40
0
 40
1
 40
1
 40
1
 40
1
 10
95.017859
 20
241.554986
 30
0.0
 10
94.553757
 20
241.287037
 30
0.0
 10
94.267859
 20
240.791846
 30
0.0
 10
94.267859
 20
240.255948
 30
0.0
  0
LINE
  5
15f
100
AcDbEntity
  8
Calque_1
 62
7
100
AcDbLine
 10
94.267859
 20
240.255948
 30
0.0
 11
94.267859
 21
200.255948
 31
0.0
  0
SPLINE
  5
160
100
AcDbEntity
  8
Calque_1
 62
7
100
AcDbSpline
 70
8
 71
3
 72
8
 73
4
 74
0
 40
0
 40
0
 40
0
 40
0
 40
1
 40
1
 40
1
 40
1
 10
94.267859
 20
200.255948
 30
0.0
 10
94.267859
 20
199.720050
 30
0.0
 10
94.553757
 20
199.224859
 30
0.0
 10
95.017859
 20
198.956910
 30
0.0
  0
SPLINE
  5
161
100
AcDbEntity
  8
Calque_1
 62
7
100
AcDbSpline
 70
8
 71
3
 72
8
 73
4
 74
0
 40
0
 40
0
 40
0
 40
0
 40
1
 40
1
 40
1
 40
1
 10
95.017859
 20
198.956910
 30
0.0
 10
95.481960
 20
198.688961
 30
0.0
 10
96.053757
 20
198.688961
 30
0.0
 10
96.517859
 20
198.956910
 30
0.0
  0
SPLINE
  5
162
100
AcDbEntity
  8
Calque_1
 62
7
100
AcDbSpline
 70
8
 71
3
 72
8
 73
4
 74
0
 40
0
 40
0
 40
0
 40
0
 40
1
 40
1
 40
1
 40
1
 10
96.517859
 20
198.956910
 30
0.0
 10
96.981960
 20
199.224859
 30
0.0
 10
97.267859
 20
199.720050
 30
0.0
 10
97.267859
 20
200.255948
 30
0.0
  0
LINE
  5
163
100
AcDbEntity
  8
Calque_1
 62
7
100
AcDbLine
 10
97.267859
 20
200.255948
 30
0.0
 11
97.267859
 21
240.255948
 31
0.0
  0
LINE
  5
164
100
AcDbEntity
  8
Calque_1
 62
7
100
AcDbLine
 10
15.767860
 20
92.755949
 30
0.0
 11
35.767859
 21
92.755949
 31
0.0
  0
LINE
  5
165
100
AcDbEntity
  8
Calque_1
 62
7
100
AcDbLine
 10
35.767859
 20
92.755949
 30
0.0
 11
35.767859
 21
87.755949
 31
0.0
  0
LINE
  5
166
100
AcDbEntity
  8
Calque_1
 62
7
100
AcDbLine
 10
35.767859
 20
87.755949
 30
0.0
 11
15.767860
 21
87.755949
 31
0.0
  0
LINE
  5
167
100
AcDbEntity
  8
Calque_1
 62
7
100
AcDbLine
 10
15.767860
 20
87.755949
 30
0.0
 11
15.767860
 21
92.755949
 31
0.0
  0
LINE
  5
168
100
AcDbEntity
  8
Calque_1
 62
7
100
AcDbLine
 10
95.767859
 20
92.755949
 30
0.0
 11
115.767859
 21
92.755949
 31
0.0
  0
LINE
  5
169
100
AcDbEntity
  8
Calque_1
 62
7
100
AcDbLine
 10
115.767859
 20
92.755949
 30
0.0
 11
115.767859
 21
87.755949
 31
0.0
  0
LINE
  5
16a
100
AcDbEntity
  8
Calque_1
 62
7
100
AcDbLine
 10
115.767859
 20
87.755949
 30
0.0
 11
95.767859
 21
87.755949
 31
0.0
  0
LINE
  5
16b
100
AcDbEntity
  8
Calque_1
 62
7
100
AcDbLine
 10
95.767859
 20
87.755949
 30
0.0
 11
95.767859
 21
92.755949
 31
0.0
  0
ENDSEC
  0
SECTION
  2
OBJECTS
  0
DICTIONARY
  5
C
330
0
100
AcDbDictionary
  3
ACAD_GROUP
350
D
  3
ACAD_MLINESTYLE
350
17
  0
DICTIONARY
  5
D
330
C
100
AcDbDictionary
  0
DICTIONARY
  5
1A
330
C
100
AcDbDictionary
  0
DICTIONARY
  5
17
330
C
100
AcDbDictionary
  3
STANDARD
350
18
  0
DICTIONARY
  5
19
330
C
100
AcDbDictionary
  0
ENDSEC
  0
EOF
