<?xml version="1.0"?>
<!DOCTYPE svg PUBLIC "-//W3C//DTD SVG 1.1//EN" "http://www.w3.org/Graphics/SVG/1.1/DTD/svg11.dtd">
<svg width="122.4mm" height="287.4mm" viewBox="0 0 122.4 287.4" xmlns="http://www.w3.org/2000/svg" version="1.1">
<g id="Sketch" transform="translate(61.200000,251.200000) scale(1,-1)">
<path id="Sketch_w0000"  d="M -10.0 0.0 L -10.0 -35.0 L 10.0 -35.0 L 10.0 0.0 L 15.0 0.0 L 15.0 5.0 L 45.0 5.0 L 45.0 0.0 L 60.0 0.0 L 60.0 250.0 L -60.0 250.0 L -60.0 0.0 L -45.0 0.0 L -45.0 5.0 L -15.0 5.0 L -15.0 0.0 L -10.0 0.0 " stroke="#000000" stroke-width="0.35 px" style="stroke-width:0.35;stroke-miterlimit:4;stroke-dasharray:none;fill:none;fill-rule: evenodd "/>
<path id="Sketch_w0001"  d="M -48.5 70.0 A 1.5 1.5 0 0 1 -51.5 70L -51.5 50.0 A 1.5 1.5 0 0 1 -48.5 50L -48.5 70.0 " stroke="#000000" stroke-width="0.35 px" style="stroke-width:0.35;stroke-miterlimit:4;stroke-dasharray:none;fill:none;fill-rule: evenodd "/>
<path id="Sketch_w0002"  d="M -28.5 70.0 A 1.5 1.5 0 1 1 -31.5 70L -31.5 50.0 A 1.5 1.5 0 1 1 -28.5 50L -28.5 70.0 " stroke="#000000" stroke-width="0.35 px" style="stroke-width:0.35;stroke-miterlimit:4;stroke-dasharray:none;fill:none;fill-rule: evenodd "/>
<path id="Sketch_w0003"  d="M -48.5 130.0 A 1.5 1.5 0 0 1 -51.5 130L -51.5 110.0 A 1.5 1.5 0 0 1 -48.5 110L -48.5 130.0 " stroke="#000000" stroke-width="0.35 px" style="stroke-width:0.35;stroke-miterlimit:4;stroke-dasharray:none;fill:none;fill-rule: evenodd "/>
<path id="Sketch_w0004"  d="M -28.5 130.0 A 1.5 1.5 0 1 1 -31.5 130L -31.5 110.0 A 1.5 1.5 0 0 1 -28.5 110L -28.5 130.0 " stroke="#000000" stroke-width="0.35 px" style="stroke-width:0.35;stroke-miterlimit:4;stroke-dasharray:none;fill:none;fill-rule: evenodd "/>
<path id="Sketch_w0005"  d="M 31.5 70.0 A 1.5 1.5 0 1 1 28.5 70L 28.5 50.0 A 1.5 1.5 0 0 1 31.5 50L 31.5 70.0 " stroke="#000000" stroke-width="0.35 px" style="stroke-width:0.35;stroke-miterlimit:4;stroke-dasharray:none;fill:none;fill-rule: evenodd "/>
<path id="Sketch_w0006"  d="M 51.5 70.0 A 1.5 1.5 0 0 1 48.5 70L 48.5 50.0 A 1.5 1.5 0 1 1 51.5 50L 51.5 70.0 " stroke="#000000" stroke-width="0.35 px" style="stroke-width:0.35;stroke-miterlimit:4;stroke-dasharray:none;fill:none;fill-rule: evenodd "/>
<path id="Sketch_w0007"  d="M 31.5 130.0 A 1.5 1.5 0 1 1 28.5 130L 28.5 110.0 A 1.5 1.5 0 1 1 31.5 110L 31.5 130.0 " stroke="#000000" stroke-width="0.35 px" style="stroke-width:0.35;stroke-miterlimit:4;stroke-dasharray:none;fill:none;fill-rule: evenodd "/>
<path id="Sketch_w0008"  d="M 51.5 130.0 A 1.5 1.5 0 1 1 48.5 130L 48.5 110.0 A 1.5 1.5 0 0 1 51.5 110L 51.5 130.0 " stroke="#000000" stroke-width="0.35 px" style="stroke-width:0.35;stroke-miterlimit:4;stroke-dasharray:none;fill:none;fill-rule: evenodd "/>
<path id="Sketch_w0009"  d="M 3.0 60.0 A 3 3 0 0 1 -3 60L -3.0 35.0 A 3 3 0 0 1 3 35L 3.0 60.0 " stroke="#000000" stroke-width="0.35 px" style="stroke-width:0.35;stroke-miterlimit:4;stroke-dasharray:none;fill:none;fill-rule: evenodd "/>
<path id="Sketch_w0010"  d="M 3.0 180.0 A 3 3 0 0 1 -3 180L -3.0 155.0 A 3 3 0 1 1 3 155L 3.0 180.0 " stroke="#000000" stroke-width="0.35 px" style="stroke-width:0.35;stroke-miterlimit:4;stroke-dasharray:none;fill:none;fill-rule: evenodd "/>
<path id="Sketch_w0011"  d="M 1.5 -4.999999999999998 A 1.5 1.5 0 0 1 -1.5 -5L -1.5 -30.0 A 1.5 1.5 0 0 1 1.5 -30L 1.5 -4.999999999999998 " stroke="#000000" stroke-width="0.35 px" style="stroke-width:0.35;stroke-miterlimit:4;stroke-dasharray:none;fill:none;fill-rule: evenodd "/>
<path id="Sketch_w0012"  d="M -28.5 240.0 A 1.5 1.5 0 0 1 -31.5 240L -31.5 200.00000000000273 A 1.5 1.5 0 0 1 -28.5 200L -28.5 240.0 " stroke="#000000" stroke-width="0.35 px" style="stroke-width:0.35;stroke-miterlimit:4;stroke-dasharray:none;fill:none;fill-rule: evenodd "/>
<path id="Sketch_w0013"  d="M 31.5 239.99999999999898 A 1.5 1.5 0 1 1 28.5 240L 28.499999999999552 200.0 A 1.5 1.5 0 0 1 31.5 200L 31.5 239.99999999999898 " stroke="#000000" stroke-width="0.35 px" style="stroke-width:0.35;stroke-miterlimit:4;stroke-dasharray:none;fill:none;fill-rule: evenodd "/>
<title>b'SketchPlancheDuBas'</title>
</g>
</svg>