<?xml version="1.0"?>
<!DOCTYPE svg PUBLIC "-//W3C//DTD SVG 1.1//EN" "http://www.w3.org/Graphics/SVG/1.1/DTD/svg11.dtd">
<svg width="122.4mm" height="247.39999999999998mm" viewBox="0 0 122.4 247.39999999999998" xmlns="http://www.w3.org/2000/svg" version="1.1">
<g id="Sketch002" transform="translate(61.200000,246.200000) scale(1,-1)">
<path id="Sketch002_w0000"  d="M 60.0 0.0 L 60.0 245.0 L -60.0 245.0 L -60.0 0.0 L -10.0 0.0 L -10.0 195.0 L 10.0 195.0 L 10.0 0.0 L 60.0 0.0 " stroke="#000000" stroke-width="0.35 px" style="stroke-width:0.35;stroke-miterlimit:4;stroke-dasharray:none;fill:none;fill-rule: evenodd "/>
<path id="Sketch002_w0001"  d="M -52.75000000000001 127.5 L -47.25000000000001 127.5 L -47.25000000000001 102.5 L -52.75000000000001 102.5 L -52.75000000000001 127.5 " stroke="#000000" stroke-width="0.35 px" style="stroke-width:0.35;stroke-miterlimit:4;stroke-dasharray:none;fill:none;fill-rule: evenodd "/>
<path id="Sketch002_w0002"  d="M -52.75 67.5 L -47.25 67.5 L -47.25 42.5 L -52.75 42.5 L -52.75 67.5 " stroke="#000000" stroke-width="0.35 px" style="stroke-width:0.35;stroke-miterlimit:4;stroke-dasharray:none;fill:none;fill-rule: evenodd "/>
<path id="Sketch002_w0003"  d="M -32.75000000000001 127.49999999999991 L -27.250000000000007 127.49999999999991 L -27.250000000000007 102.49999999999991 L -32.75000000000001 102.5 L -32.75000000000001 127.49999999999991 " stroke="#000000" stroke-width="0.35 px" style="stroke-width:0.35;stroke-miterlimit:4;stroke-dasharray:none;fill:none;fill-rule: evenodd "/>
<path id="Sketch002_w0004"  d="M -32.75 67.49999999999997 L -27.25 67.49999999999997 L -27.25 42.49999999999997 L -32.75 42.49999999999997 L -32.75 67.49999999999997 " stroke="#000000" stroke-width="0.35 px" style="stroke-width:0.35;stroke-miterlimit:4;stroke-dasharray:none;fill:none;fill-rule: evenodd "/>
<path id="Sketch002_w0005"  d="M 27.250000000000014 127.499999999999 L 32.750000000000014 127.499999999999 L 32.750000000000014 102.499999999999 L 27.250000000000014 102.49999999999906 L 27.250000000000014 127.499999999999 " stroke="#000000" stroke-width="0.35 px" style="stroke-width:0.35;stroke-miterlimit:4;stroke-dasharray:none;fill:none;fill-rule: evenodd "/>
<path id="Sketch002_w0006"  d="M 27.25 67.49999999999999 L 32.750000000000014 67.49999999999996 L 32.75 42.49999999999996 L 27.25 42.49999999999996 L 27.25 67.49999999999999 " stroke="#000000" stroke-width="0.35 px" style="stroke-width:0.35;stroke-miterlimit:4;stroke-dasharray:none;fill:none;fill-rule: evenodd "/>
<path id="Sketch002_w0007"  d="M 47.25 127.49999999999874 L 52.75 127.49999999999874 L 52.75 102.49999999999874 L 47.25 102.49999999999882 L 47.25 127.49999999999874 " stroke="#000000" stroke-width="0.35 px" style="stroke-width:0.35;stroke-miterlimit:4;stroke-dasharray:none;fill:none;fill-rule: evenodd "/>
<path id="Sketch002_w0008"  d="M 47.25 67.49999999999986 L 52.74999999999998 67.49999999999983 L 52.75 42.49999999999982 L 47.25 42.49999999999982 L 47.25 67.49999999999986 " stroke="#000000" stroke-width="0.35 px" style="stroke-width:0.35;stroke-miterlimit:4;stroke-dasharray:none;fill:none;fill-rule: evenodd "/>
<path id="Sketch002_w0009"  d="M -32.75 237.00000000000003 L -27.25 237.00000000000003 L -27.25 193.00000000000003 L -32.75 193.00000000000003 L -32.75 237.00000000000003 " stroke="#000000" stroke-width="0.35 px" style="stroke-width:0.35;stroke-miterlimit:4;stroke-dasharray:none;fill:none;fill-rule: evenodd "/>
<path id="Sketch002_w0010"  d="M 27.25 237.00000000000003 L 32.75 237.0 L 32.75 193.0 L 27.25 193.0 L 27.25 237.00000000000003 " stroke="#000000" stroke-width="0.35 px" style="stroke-width:0.35;stroke-miterlimit:4;stroke-dasharray:none;fill:none;fill-rule: evenodd "/>
<title>b'SketchPlancheMilieu'</title>
</g>
</svg>